<?xml version="1.0" standalone="no"?>
<!DOCTYPE svg PUBLIC "-//W3C//DTD SVG 1.1//EN" "http://www.w3.org/Graphics/SVG/1.1/DTD/svg11.dtd" >
<svg xmlns="http://www.w3.org/2000/svg" xmlns:xlink="http://www.w3.org/1999/xlink" version="1.1">
<metadata>
Created by FontForge 20170731 at Mon May 10 16:48:50 2021
 By Aleksey,,,
(c)2003-10 Paul Barnes and Commercial Type.
</metadata>
<defs>
<font id="Austin-LightItalic" horiz-adv-x="485" >
  <font-face 
    font-family="Austin Light"
    font-weight="300"
    font-style="italic"
    font-stretch="normal"
    units-per-em="2048"
    panose-1="2 2 3 3 7 7 2 3 4 3"
    ascent="1612"
    descent="-436"
    x-height="872"
    cap-height="1346"
    bbox="-485 -639 1954 1714"
    underline-thickness="102"
    underline-position="-409"
    slope="-12"
    unicode-range="U+0020-007E"
  />
<missing-glyph horiz-adv-x="51" 
 />
    <glyph glyph-name="f_b" unicode="fb" horiz-adv-x="1349" 
d="M117 854h172q24 89 45.5 154t51 133t64 113.5t79.5 83t103 55.5t128 18q56 0 112 -16h179q10 0 10 -11q0 -1 -25 -71q-23 -62 -59 -170l-141 -441h6q115 170 241 170q205 0 205 -276q0 -256 -168 -457q-65 -75 -142 -116t-153 -41q-92 0 -157.5 72.5t-65.5 187.5
q0 91 62 284l94 299h-355q-42 -171 -84.5 -316.5t-94.5 -291t-109 -257t-120.5 -199.5t-137.5 -134.5t-152 -46.5q-79 0 -129.5 34t-50.5 93q0 33 19.5 52.5t49.5 19.5q28 0 45.5 -14.5t22.5 -36.5q3 -15 3.5 -44t2.5 -38q8 -35 47 -35q96 0 172 94q39 49 73.5 110.5
t68.5 149t59.5 161t61.5 203.5t58.5 215.5t65.5 254.5l7 26h-172zM1161 659q0 90 -24 132.5t-76 42.5q-61 0 -127 -60q-70 -67 -115 -164q-47 -101 -78.5 -232.5t-31.5 -209.5q0 -160 118 -160q81 0 140.5 62t107.5 176q34 80 60 195t26 218zM412 854h356l111 344q5 18 8 25
q-41 9 -41 63q0 14 5 36.5t5 31.5q0 39 -102 39q-122 0 -201 -136q-74 -126 -141 -403z" />
    <glyph glyph-name="f_f" unicode="ff" horiz-adv-x="968" 
d="M1274 1303q0 -32 -17 -48t-45 -16q-65 0 -65 61q0 3 2.5 32.5t-0.5 33.5q-5 31 -41 31q-50 0 -86 -58q-84 -136 -172 -485h205l-8 -29h-201q-46 -194 -98 -364t-120.5 -335.5t-142 -283.5t-164.5 -190t-186 -72q-77 0 -128.5 32t-51.5 87q0 10 2 14q-120 -133 -252 -133
q-79 0 -129.5 34t-50.5 93q0 33 19.5 52.5t49.5 19.5q28 0 45.5 -14.5t22.5 -36.5q3 -15 3.5 -44t2.5 -38q8 -35 47 -35q53 0 93 23t79 71q39 49 73.5 110.5t68.5 149t59.5 161t61.5 203.5t58.5 215.5t65.5 254.5l7 26h-172l8 29h172q20 78 36.5 133t40 117.5t48 104.5
t58 83.5t72.5 65.5t90 38.5t111 14.5q62 0 115.5 -19t77.5 -53q76 76 182 76q59 0 106.5 -30.5t47.5 -81.5zM723 825h-320q-184 -766 -403 -1058q6 2 16 2q51 0 64 -50q3 -13 4.5 -41t3.5 -36q5 -35 57 -35q98 0 181 102q102 126 183.5 365t195.5 680zM412 854h317
q60 243 127 371q-41 16 -41 65q0 6 3 32t3 32q0 39 -82 39q-63 0 -104 -32.5t-82 -103.5q-74 -126 -141 -403z" />
    <glyph glyph-name="f_f_b" unicode="ffb" horiz-adv-x="1792" 
d="M1731 596q0 -256 -168 -457q-65 -75 -142 -116t-153 -41q-92 0 -158 72.5t-66 187.5q0 91 62 284l94 299h-354q-38 -159 -80.5 -302.5t-95 -288t-111.5 -259.5t-125 -205.5t-142 -140t-155 -49.5q-77 0 -128.5 32t-51.5 87q0 12 2 18q-124 -137 -254 -137
q-79 0 -129.5 34t-50.5 93q0 33 19.5 52.5t49.5 19.5q28 0 45.5 -14.5t22.5 -36.5q3 -15 3.5 -44t2.5 -38q8 -35 47 -35q53 0 93 23t79 71q39 49 73.5 110.5t68.5 149t59.5 161t61.5 203.5t58.5 215.5t65.5 254.5l7 26h-172l8 29h172q20 78 36.5 133t40 117.5t48 104.5
t58 83.5t72.5 65.5t90 38.5t111 14.5q72 0 130.5 -25.5t70.5 -68.5q105 94 256 94q57 0 113 -16h178q10 0 10 -11q0 -4 -24 -71q-31 -83 -60 -170l-141 -441h6q115 170 242 170q205 0 205 -276zM328 -291q103 127 190.5 384t194.5 685l10 47h-320q-187 -766 -403 -1058
q6 2 18 2q51 0 64 -50q3 -13 4.5 -41t3.5 -36q5 -35 57 -35q98 0 181 102zM1604 659q0 90 -24.5 132.5t-76.5 42.5q-61 0 -127 -60q-69 -65 -114 -164q-47 -101 -79 -232.5t-32 -209.5q0 -160 119 -160q81 0 140.5 62t107.5 176q34 80 60 195t26 218zM995 1257
q-73 -124 -143 -403h358l111 344q5 18 8 25q-41 9 -41 63q0 14 5 36.5t5 31.5q0 39 -102 39q-122 0 -201 -136zM412 854h319q68 256 139 369q-53 10 -53 67q0 6 3 31t3 31q0 41 -84 41q-63 0 -104 -32.5t-82 -103.5q-74 -126 -141 -403z" />
    <glyph glyph-name="f_f_h" unicode="ffh" horiz-adv-x="1853" 
d="M1774 217q-26 -42 -54.5 -79.5t-65 -74.5t-78 -59t-81.5 -22t-63 23t-23 61q0 21 5 48.5t18.5 72.5t23 75t34 102.5t36.5 108.5q9 27 25 74t25 75.5t19.5 62t15.5 56t5 35.5q0 45 -39 45q-81 0 -199 -133t-221 -377q-24 -56 -110 -311h-119l272 825h-354
q-38 -159 -80.5 -302.5t-95 -288t-111.5 -259.5t-125 -205.5t-142 -140t-155 -49.5q-77 0 -128.5 32t-51.5 87q0 12 2 18q-124 -137 -254 -137q-79 0 -129.5 34t-50.5 93q0 33 19.5 52.5t49.5 19.5q28 0 45.5 -14.5t22.5 -36.5q3 -15 3.5 -44t2.5 -38q8 -35 47 -35
q53 0 93 23t79 71q39 49 73.5 110.5t68.5 149t59.5 161t61.5 203.5t58.5 215.5t65.5 254.5l7 26h-172l8 29h172q20 78 36.5 133t40 117.5t48 104.5t58 83.5t72.5 65.5t90 38.5t111 14.5q72 0 130.5 -25.5t70.5 -68.5q105 94 256 94q57 0 113 -16h174q10 0 10 -11
q0 -1 -26 -81q-17 -47 -60 -179l-207 -628h8q109 187 216.5 285t199.5 98q99 0 99 -111q0 -22 -6 -53t-21.5 -82t-25 -79.5t-34 -100t-30.5 -88.5q-84 -245 -84 -289q0 -16 6.5 -21.5t19.5 -5.5q43 0 98 53t101 125zM328 -291q103 127 190.5 384t194.5 685l10 47h-320
q-187 -766 -403 -1058q6 2 18 2q51 0 64 -50q3 -13 4.5 -41t3.5 -36q5 -35 57 -35q98 0 181 102zM995 1257q-73 -124 -143 -403h356l123 369q-43 9 -43 63q0 14 5 36.5t5 31.5q0 39 -102 39q-122 0 -201 -136zM412 854h319q68 256 139 369q-53 10 -53 67q0 6 3 31t3 31
q0 41 -84 41q-63 0 -104 -32.5t-82 -103.5q-74 -126 -141 -403z" />
    <glyph glyph-name="f_f_i" unicode="ffi" horiz-adv-x="1382" 
d="M1071 494q11 34 29 88t29.5 89t17.5 58q14 46 3 71t-52 25h-262q-46 -192 -98 -361.5t-121 -335.5t-142 -284t-163.5 -191t-184.5 -73q-77 0 -128.5 32t-51.5 87q0 12 2 18q-124 -137 -254 -137q-79 0 -129.5 34t-50.5 93q0 33 19.5 52.5t49.5 19.5q28 0 45.5 -14.5
t22.5 -36.5q3 -15 3.5 -44t2.5 -38q8 -35 47 -35q53 0 93 23t79 71q39 49 73.5 110.5t68.5 149t59.5 161t61.5 203.5t58.5 215.5t65.5 254.5l6 26h-172l8 29h173q20 78 36.5 133t40 117.5t48 104.5t58 83.5t72.5 65.5t90 38.5t111 14.5q68 0 125 -24t74 -64q98 88 244 88
q81 0 137.5 -31t56.5 -84q0 -35 -19.5 -55t-47.5 -20q-31 0 -50.5 19t-19.5 50q0 6 3 32t3 32q0 21 -16.5 30t-53.5 9q-63 0 -104 -32.5t-82 -103.5q-75 -128 -143 -403h461q-8 -42 -27 -107.5t-35 -114t-46.5 -137t-41.5 -120.5q-84 -252 -84 -297q0 -29 23 -29
q45 0 100.5 53.5t101.5 126.5l19 -10q-56 -95 -130 -166t-151 -71q-39 0 -61.5 25t-22.5 73q0 32 18.5 98t58 181t46.5 135zM705 791q5 25 8 34h-320q-187 -766 -403 -1058q6 2 18 2q51 0 64 -50q3 -13 4.5 -41t3.5 -36q5 -35 57 -35q97 0 180 102q104 127 189.5 379.5
t198.5 702.5zM719 854q69 258 135 371q-47 10 -47 65q0 6 3 31t3 31q0 41 -84 41q-63 0 -104 -32.5t-82 -103.5q-76 -129 -142 -403h318z" />
    <glyph glyph-name="f_f_j" unicode="ffj" horiz-adv-x="1337" 
d="M1116 252q-98 -309 -140.5 -412t-96.5 -166q-48 -57 -108.5 -83.5t-113.5 -26.5q-79 0 -118 38t-39 85q0 35 17.5 57.5t47.5 22.5q32 0 49 -18.5t17 -49.5q0 -14 -8 -47q-5 -25 -5 -29q0 -14 14 -22.5t34 -8.5q77 0 131 93q44 76 209 596q38 115 94 305q51 173 51 194
q0 45 -41 45h-274q-46 -192 -98 -361.5t-121 -335.5t-142 -284t-163.5 -191t-184.5 -73q-77 0 -128.5 32t-51.5 87q0 12 2 18q-124 -137 -254 -137q-79 0 -129.5 34t-50.5 93q0 33 19.5 52.5t49.5 19.5q28 0 45.5 -14.5t22.5 -36.5q3 -15 3.5 -44t2.5 -38q8 -35 47 -35
q53 0 93 23t79 71q39 49 73.5 110.5t68.5 149t59.5 161t61.5 203.5t58.5 215.5t65.5 254.5l6 26h-172l8 29h173q20 78 36.5 133t40 117.5t48 104.5t58 83.5t72.5 65.5t90 38.5t111 14.5q68 0 125 -24t74 -64q98 88 244 88q81 0 137.5 -31t56.5 -84q0 -35 -19.5 -55
t-47.5 -20q-31 0 -50.5 19t-19.5 50q0 6 3 32t3 32q0 21 -16.5 30t-53.5 9q-63 0 -104 -32.5t-82 -103.5q-75 -128 -143 -403h458q-23 -123 -184 -602zM705 791q5 25 8 34h-320q-187 -766 -403 -1058q6 2 18 2q51 0 64 -50q3 -13 4.5 -41t3.5 -36q5 -35 57 -35q97 0 180 102
q104 127 189.5 379.5t198.5 702.5zM719 854q69 258 135 371q-47 10 -47 65q0 6 3 31t3 31q0 41 -84 41q-63 0 -104 -32.5t-82 -103.5q-76 -129 -142 -403h318z" />
    <glyph glyph-name="f_f_k" unicode="ffk" horiz-adv-x="1763" 
d="M1790 784q0 -36 -19 -55.5t-51 -19.5q-23 0 -39 14.5t-16 38.5q0 14 4 26q8 24 8 29q0 12 -14 12q-31 0 -60 -42t-71 -125q-6 -14 -10 -21q-46 -89 -127 -127v-6q45 -14 75 -35t43.5 -47.5t18 -49.5t4.5 -52q0 -42 -27 -152q-18 -71 -18 -98q0 -15 7.5 -25t19.5 -10
q29 0 75 45t82 104l17 -10q-47 -78 -110.5 -136t-129.5 -58q-37 0 -58.5 26t-21.5 60q0 10 0.5 19t3 21.5l4 20t6 24.5t6.5 24.5t9 31t10 33.5q23 79 23 137q0 38 -10 62.5t-31 36t-43 15t-56 3.5h-88l-166 -498h-116l278 825h-356q-38 -159 -80.5 -302.5t-95 -288
t-111.5 -259.5t-125 -205.5t-142 -140t-155 -49.5q-77 0 -128.5 32t-51.5 87q0 12 2 18q-124 -137 -254 -137q-79 0 -129.5 34t-50.5 93q0 33 19.5 52.5t49.5 19.5q28 0 45.5 -14.5t22.5 -36.5q3 -15 3.5 -44t2.5 -38q8 -35 47 -35q53 0 93 23t79 71q39 49 73.5 110.5
t68.5 149t59.5 161t61.5 203.5t58.5 215.5t65.5 254.5l7 26h-172l8 29h172q20 78 36.5 133t40 117.5t48 104.5t58 83.5t72.5 65.5t90 38.5t111 14.5q72 0 130.5 -25.5t70.5 -68.5q105 94 256 94q57 0 113 -16h186q10 0 10 -11q0 -4 -3.5 -14t-11.5 -28t-13 -33
q-35 -97 -58 -166l-208 -619h104q109 0 182 142q4 7 15 29t15.5 30t14.5 26t17 28t16 22.5t18 21.5q48 51 107 51q40 0 62 -26.5t22 -63.5zM328 -291q103 127 190.5 384t194.5 685l10 47h-320q-187 -766 -403 -1058q6 2 18 2q51 0 64 -50q3 -13 4.5 -41t3.5 -36
q5 -35 57 -35q98 0 181 102zM995 1257q-73 -124 -143 -403h360l115 338q2 8 10 29q-49 6 -49 65q0 14 5 36.5t5 31.5q0 39 -102 39q-122 0 -201 -136zM412 854h319q68 256 139 369q-53 10 -53 67q0 6 3 31t3 31q0 41 -84 41q-63 0 -104 -32.5t-82 -103.5q-74 -126 -141 -403
z" />
    <glyph glyph-name="f_f_l" unicode="ffl" horiz-adv-x="1396" 
d="M1202 1411q57 0 113 -16h184q10 0 10 -11q0 -7 -22 -65q-7 -18 -19 -51t-23 -63t-22 -62l-262 -766q-7 -22 -18 -53.5t-17 -49.5t-14 -43t-13 -39.5t-10.5 -32.5t-8.5 -29t-6 -23t-4 -19.5t-1 -13.5q0 -25 27 -25q42 0 109 57t110 121l18 -10q-58 -89 -140 -161t-157 -72
q-36 0 -59 26.5t-23 65.5q0 20 4.5 43.5t16 61t22.5 68.5t34 96t40 114l125 366h-350q-38 -159 -80.5 -302.5t-95 -288t-111.5 -259.5t-125 -205.5t-142 -140t-155 -49.5q-77 0 -128.5 32t-51.5 87q0 12 2 18q-124 -137 -254 -137q-79 0 -129.5 34t-50.5 93q0 33 19.5 52.5
t49.5 19.5q28 0 45.5 -14.5t22.5 -36.5q3 -15 3.5 -44t2.5 -38q8 -35 47 -35q53 0 93 23t79 71q39 49 73.5 110.5t68.5 149t59.5 161t61.5 203.5t58.5 215.5t65.5 254.5l7 26h-172l8 29h172q20 78 36.5 133t40 117.5t48 104.5t58 83.5t72.5 65.5t90 38.5t111 14.5
q72 0 130.5 -25.5t70.5 -68.5q105 94 256 94zM328 -291q103 127 190.5 384t194.5 685l10 47h-320q-187 -766 -403 -1058q6 2 18 2q51 0 64 -50q3 -13 4.5 -41t3.5 -36q5 -35 57 -35q98 0 181 102zM995 1257q-73 -124 -143 -403h354l119 344q4 18 8 23q-45 9 -45 65
q0 14 5 36.5t5 31.5q0 39 -102 39q-122 0 -201 -136zM412 854h319q68 256 139 369q-53 10 -53 67q0 6 3 31t3 31q0 41 -84 41q-63 0 -104 -32.5t-82 -103.5q-74 -126 -141 -403z" />
    <glyph glyph-name="f_h" unicode="fh" horiz-adv-x="1404" 
d="M117 854h172q24 89 45.5 154t51 133t64 113.5t79.5 83t103 55.5t128 18q56 0 112 -16h168q11 0 11 -11q0 -4 -4 -15.5t-11 -31.5t-12 -34q0 -1 -59 -179l-207 -628h8q109 187 216.5 285t199.5 98q98 0 98 -111q0 -22 -6 -53t-21.5 -82t-25 -79.5t-34 -100t-30.5 -88.5
q-84 -245 -84 -289q0 -16 6.5 -21.5t20.5 -5.5q43 0 98 53t101 125l20 -10q-36 -59 -74.5 -107t-94.5 -88t-109 -40q-40 0 -63 23t-23 61q0 16 2.5 34.5t9 44.5t13 48.5t18.5 60t21 64t25 75t27 80.5q9 27 25 74t25 75.5t19.5 62t15.5 56t5 35.5q0 45 -39 45
q-80 0 -198 -133t-221 -377q-29 -67 -111 -311h-119l273 825h-349q-42 -171 -84.5 -316.5t-94.5 -291t-109 -257t-120.5 -199.5t-137.5 -134.5t-152 -46.5q-79 0 -129.5 34t-50.5 93q0 33 19.5 52.5t49.5 19.5q28 0 45.5 -14.5t22.5 -36.5q3 -15 3.5 -44t2.5 -38
q8 -35 47 -35q96 0 172 94q39 49 73.5 110.5t68.5 149t59.5 161t61.5 203.5t58.5 215.5t65.5 254.5l7 26h-172zM412 854h348l123 369q-37 12 -37 63q0 14 5 36.5t5 31.5q0 39 -102 39q-122 0 -201 -136q-74 -126 -141 -403z" />
    <glyph glyph-name="f_i" unicode="fi" horiz-adv-x="940" 
d="M629 494q11 34 29 88t29.5 89t17.5 58q14 46 2.5 71t-52.5 25h-262q-42 -171 -84.5 -316.5t-94.5 -291t-109 -257t-120.5 -199.5t-137.5 -134.5t-152 -46.5q-79 0 -129.5 34t-50.5 93q0 33 19.5 52.5t49.5 19.5q28 0 45.5 -14.5t22.5 -36.5q3 -15 3.5 -44t2.5 -38
q8 -35 47 -35q53 0 93 23t79 71q39 49 73.5 110.5t68.5 149t59.5 161t61.5 203.5t58.5 215.5t65.5 254.5l6 26h-172l8 29h173q20 78 36.5 133t40 117.5t48 104.5t58 83.5t72.5 65.5t90 38.5t111 14.5q81 0 138 -31t57 -84q0 -35 -20 -55t-48 -20q-31 0 -50 19t-19 50
q0 6 3 32t3 32q0 21 -16.5 30t-53.5 9q-63 0 -104 -32.5t-82 -103.5q-76 -129 -142 -403h459q-8 -42 -27.5 -108.5t-34 -111.5t-47 -139.5t-40.5 -119.5q-84 -252 -84 -297q0 -29 22 -29q46 0 101.5 53.5t101.5 126.5l18 -10q-56 -95 -129.5 -166t-150.5 -71q-39 0 -61.5 25
t-22.5 73q0 32 18.5 98t58 181t46.5 135z" />
    <glyph glyph-name="f_j" unicode="fj" horiz-adv-x="892" 
d="M672 252q-97 -307 -140.5 -411t-97.5 -167q-48 -57 -108.5 -83.5t-112.5 -26.5q-79 0 -118.5 38t-39.5 85q0 35 18 57.5t48 22.5q32 0 48.5 -18.5t16.5 -49.5q0 -14 -8 -47q-4 -20 -4 -29q0 -14 13.5 -22.5t33.5 -8.5q77 0 131 93q44 76 209 596q38 115 94 305
q8 27 18.5 62t15 51t10 34.5t7 28.5t1.5 18q0 45 -41 45h-273q-42 -171 -84.5 -316.5t-94.5 -291t-109 -257t-120.5 -199.5t-137.5 -134.5t-152 -46.5q-79 0 -129.5 34t-50.5 93q0 33 19.5 52.5t49.5 19.5q28 0 45.5 -14.5t22.5 -36.5q3 -15 3.5 -44t2.5 -38q8 -35 47 -35
q53 0 93 23t79 71q39 49 73.5 110.5t68.5 149t59.5 161t61.5 203.5t58.5 215.5t65.5 254.5l6 26h-172l8 29h173q20 78 36.5 133t40 117.5t48 104.5t58 83.5t72.5 65.5t90 38.5t111 14.5q81 0 138 -31t57 -84q0 -35 -20 -55t-48 -20q-31 0 -50 19t-19 50q0 6 3 32t3 32
q0 21 -16.5 30t-53.5 9q-63 0 -104 -32.5t-82 -103.5q-76 -129 -142 -403h455q-23 -123 -184 -602z" />
    <glyph glyph-name="f_k" unicode="fk" horiz-adv-x="1312" 
d="M117 854h172q24 89 45.5 154t51 133t64 113.5t79.5 83t103 55.5t128 18q56 0 112 -16h179q10 0 10 -11q0 -4 -4 -14t-11.5 -27.5t-13.5 -33.5q-25 -68 -57 -166l-209 -619h104q110 0 183 142q4 7 15 29t15.5 30t14.5 26t17 28t16 22.5t18 21.5q48 51 106 51
q40 0 62 -26.5t22 -63.5q0 -36 -18.5 -55.5t-50.5 -19.5q-23 0 -39.5 14.5t-16.5 38.5q0 11 5 26q8 24 8 29q0 12 -15 12q-31 0 -60 -42t-71 -125q-6 -14 -10 -21q-46 -89 -127 -127v-6q45 -14 75 -35t43.5 -47.5t18 -49.5t4.5 -52q0 -46 -26 -152q-19 -75 -19 -98
q0 -15 7.5 -25t19.5 -10q29 0 75.5 45.5t82.5 103.5l16 -10q-47 -78 -110.5 -136t-129.5 -58q-37 0 -58 26t-21 60q0 10 0.5 19t3 21.5l4 20t6 24.5t6.5 24.5t9 31t10 33.5q22 75 22 137q0 73 -34.5 95t-104.5 22h-88l-166 -498h-117l279 825h-349q-42 -171 -84.5 -316.5
t-94.5 -291t-109 -257t-120.5 -199.5t-137.5 -134.5t-152 -46.5q-79 0 -129.5 34t-50.5 93q0 33 19.5 52.5t49.5 19.5q28 0 45.5 -14.5t22.5 -36.5q3 -15 3.5 -44t2.5 -38q8 -35 47 -35q96 0 172 94q39 49 73.5 110.5t68.5 149t59.5 161t61.5 203.5t58.5 215.5t65.5 254.5
l7 26h-172zM412 854h350l115 338q8 19 10 31q-41 9 -41 63q0 14 5 36.5t5 31.5q0 39 -102 39q-122 0 -201 -136q-74 -126 -141 -403z" />
    <glyph glyph-name="f_l" unicode="fl" horiz-adv-x="956" 
d="M117 854h172q24 89 45.5 154t51 133t64 113.5t79.5 83t103 55.5t128 18q56 0 112 -16h187q10 0 10 -11q0 -7 -22 -65q-7 -18 -19 -51t-23 -63t-22 -62l-262 -766q-7 -22 -18 -53.5t-17 -49.5t-14 -43t-13 -39.5t-10.5 -32.5t-8.5 -29t-6 -23t-4 -19.5t-1 -13.5
q0 -25 26 -25q42 0 109 57t110 121l19 -10q-58 -89 -140 -161t-157 -72q-36 0 -59 26.5t-23 65.5q0 20 4.5 43.5t16 61t22.5 68.5t34 96t40 114l125 366h-353q-42 -171 -84.5 -316.5t-94.5 -291t-109 -257t-120.5 -199.5t-137.5 -134.5t-152 -46.5q-79 0 -129.5 34t-50.5 93
q0 33 19.5 52.5t49.5 19.5q28 0 45.5 -14.5t22.5 -36.5q3 -15 3.5 -44t2.5 -38q8 -35 47 -35q96 0 172 94q39 49 73.5 110.5t68.5 149t59.5 161t61.5 203.5t58.5 215.5t65.5 254.5l7 26h-172zM412 854h354l119 344q4 18 8 23q-47 9 -47 65q0 14 5 36.5t5 31.5q0 39 -102 39
q-122 0 -201 -136q-74 -126 -141 -403z" />
    <glyph glyph-name=".notdef" horiz-adv-x="51" 
 />
    <glyph glyph-name=".null" horiz-adv-x="0" 
 />
    <glyph glyph-name="nonmarkingreturn" horiz-adv-x="682" 
 />
    <glyph glyph-name="space" unicode=" " horiz-adv-x="399" 
 />
    <glyph glyph-name="exclam" unicode="!" horiz-adv-x="415" 
d="M465 1288q0 -25 -5.5 -56t-18.5 -72.5t-22.5 -68t-29.5 -81.5t-27 -74q-28 -78 -79 -222t-90.5 -255t-67.5 -185h-27q90 434 121 603q4 24 15 88t17 94t15 76.5t17 78t16 56.5q21 60 45.5 80t52.5 20q68 0 68 -82zM-41 55q0 38 24 64t62 26t63 -26.5t25 -63.5t-25 -62.5
t-63 -25.5t-62 25.5t-24 62.5z" />
    <glyph glyph-name="quotedbl" unicode="&#x22;" horiz-adv-x="473" 
d="M309 1317q0 -27 -14.5 -64.5t-61.5 -138.5l-59 -133h-16l14 133q15 155 23 195q14 63 63 63q26 0 38.5 -15.5t12.5 -39.5zM518 1317q0 -27 -14.5 -64.5t-61.5 -138.5l-59 -133h-16l14 133q16 164 22 195q6 29 23 46t41 17q26 0 38.5 -15.5t12.5 -39.5z" />
    <glyph glyph-name="numbersign" unicode="#" horiz-adv-x="1155" 
d="M1198 895h-295l-119 -438h312v-23h-316l-116 -434h-39l116 434h-383l-75 -281l-41 -153h-39l116 434h-319v23h324l118 438h-342v25h346l113 421h39l-113 -421h383l113 421h39l-113 -421h291v-25zM864 895h-383l-119 -438h383zM242 0h2q-2 -6 -2 0z" />
    <glyph glyph-name="dollar" unicode="$" horiz-adv-x="913" 
d="M702 1511l-45 -180q128 -10 198.5 -63.5t70.5 -120.5q0 -44 -21.5 -71t-58.5 -27q-34 0 -53 18.5t-19 48.5q0 16 12.5 49t12.5 45q0 34 -38.5 61.5t-109.5 33.5l-135 -535q12 -12 45.5 -47.5t44 -47.5t37.5 -41.5t36 -43.5t28 -40.5t25.5 -44.5t16 -43t12.5 -49t3 -51
q0 -163 -129.5 -270.5t-319.5 -116.5l-47 -196h-32l49 194q-129 0 -216 64.5t-87 157.5q0 37 21 63.5t58 26.5q39 0 57.5 -24.5t18.5 -57.5q0 -17 -9 -55.5t-9 -59.5q0 -38 45.5 -63t122.5 -25h4l160 627l-7 8q-46 49 -74 82t-59 79.5t-46 93.5t-15 97q0 102 53.5 183
t135.5 122t173 41h17l45 178h28zM639 297q0 48 -8 83t-33 73.5t-48.5 65.5t-76.5 83l-149 -602q140 12 227.5 99t87.5 198zM360 1053q0 -67 32 -124.5t91 -121.5q3 -6 11 -10l129 510h-11q-116 0 -184 -74.5t-68 -179.5z" />
    <glyph glyph-name="percent" unicode="%" horiz-adv-x="1253" 
d="M641 1120q0 -177 -105.5 -308.5t-244.5 -131.5q-71 0 -122.5 60.5t-51.5 154.5q0 176 105 308t243 132q73 0 124.5 -60.5t51.5 -154.5zM539 1145q0 35 -2.5 58.5t-10.5 50t-26 40t-47 13.5q-57 0 -99 -47q-57 -62 -96 -176.5t-39 -221.5q0 -74 18 -113.5t62 -39.5
q57 0 98 43q52 54 97 170.5t45 222.5zM1161 1327l-964 -1368l-29 23l965 1368zM1200 412q0 -116 -49 -218.5t-129.5 -162.5t-171.5 -60q-71 0 -122.5 60.5t-51.5 154.5q0 177 105 309t243 132q73 0 124.5 -60.5t51.5 -154.5zM1098 436q0 35 -2.5 58.5t-10.5 50t-26 40
t-47 13.5q-57 0 -99 -47q-57 -62 -96 -176t-39 -221q0 -74 18 -114t62 -40q57 0 98 43q52 54 97 170.5t45 222.5z" />
    <glyph glyph-name="ampersand" unicode="&#x26;" horiz-adv-x="1429" 
d="M358 981q0 -37 11 -86q27 8 57 8q50 0 81.5 -21t31.5 -55q0 -29 -19 -45t-49 -16q-71 0 -123 86q-67 -42 -112.5 -131t-45.5 -197q0 -84 26 -158t79 -136t145.5 -98t214.5 -36q97 0 178.5 29.5t138 79t95.5 115.5t57.5 138.5t18.5 147.5q0 79 -23.5 136t-62.5 86
t-80.5 42t-87.5 13q-87 0 -133.5 -45t-46.5 -115q0 -56 34.5 -91.5t71.5 -35.5q-6 32 -2.5 63.5t27 55.5t61.5 24q37 0 61.5 -23.5t24.5 -58.5q0 -50 -34.5 -81t-94.5 -31q-76 0 -127 50t-51 130q0 95 69 165.5t183 70.5q44 0 143.5 -19.5t143.5 -19.5q89 0 137.5 50
t48.5 128q0 125 -92 176q-9 -56 -37 -86.5t-70 -30.5q-37 0 -61.5 24.5t-24.5 61.5t26.5 62.5t67.5 25.5q88 0 179.5 -79t91.5 -185q0 -117 -66.5 -183.5t-181.5 -66.5q-83 0 -166 35q59 -44 94 -130t35 -173q0 -84 -21.5 -165.5t-68 -157.5t-114 -133t-167.5 -91.5
t-219 -34.5q-121 0 -222.5 39t-169.5 106.5t-106 157t-38 189.5q0 165 73.5 271.5t184.5 152.5q-25 61 -25 137q0 136 80.5 226.5t216.5 90.5q113 0 177.5 -49.5t64.5 -138.5q0 -108 -103 -150l-6 9q45 30 45 96q0 61 -48.5 105t-141.5 44q-96 0 -165 -76t-69 -198z" />
    <glyph glyph-name="quotesingle" unicode="'" horiz-adv-x="247" 
d="M309 1317q0 -27 -14.5 -64.5t-61.5 -138.5l-59 -133h-16l14 133q15 155 23 195q14 63 63 63q26 0 38.5 -15.5t12.5 -39.5z" />
    <glyph glyph-name="parenleft" unicode="(" horiz-adv-x="538" 
d="M713 1366q-512 -397 -512 -938q0 -153 43 -319t108 -297l-30 -19q-62 127 -110 297.5t-48 337.5q0 560 528 963z" />
    <glyph glyph-name="parenright" unicode=")" horiz-adv-x="555" 
d="M-137 -207l-21 25q512 397 512 938q0 153 -43 319t-108 297l30 19q62 -127 110 -297.5t48 -337.5q0 -560 -528 -963z" />
    <glyph glyph-name="asterisk" unicode="*" horiz-adv-x="671" 
d="M389 1004q-45 -4 -156 -20.5t-141 -16.5q-49 0 -49 47q0 49 49 49q30 0 140 -17.5t155 -21.5q-34 28 -123 94.5t-110 87.5q-35 35 0 70q32 36 67 -2q21 -21 86.5 -111.5t93.5 -124.5q-4 44 -20 154.5t-16 140.5q0 49 49 49q47 0 47 -49q0 -24 -7 -73.5t-17 -115.5
t-15 -106q29 35 95 124t87 110q37 37 70 0q35 -31 -2 -68q-21 -20 -110 -85t-126 -95q45 4 155 20.5t140 16.5q49 0 49 -49q0 -47 -49 -47q-24 0 -73.5 7t-115.5 17t-106 15q34 -28 123.5 -95t110.5 -88q33 -33 2 -69q-35 -30 -70 2q-20 21 -85.5 110t-94.5 125
q5 -40 15 -106t17 -115.5t7 -73.5q0 -49 -49 -49q-47 0 -47 49q0 24 6.5 73.5t16.5 115.5t15 106q-32 -38 -98 -125.5t-86 -107.5q-33 -36 -67 -2t0 69q23 22 115 89.5t122 91.5z" />
    <glyph glyph-name="plus" unicode="+" horiz-adv-x="931" 
d="M825 518h-358v-356h-33v356h-356v33h356v358h33v-358h358v-33z" />
    <glyph glyph-name="comma" unicode="," horiz-adv-x="366" 
d="M211 51q0 -101 -79 -180t-206 -123l-8 19q27 11 56.5 27t66.5 40t60.5 53.5t23.5 57.5q0 20 -6 32q-82 13 -82 86q0 38 23.5 64.5t62.5 26.5q40 0 64 -28.5t24 -74.5z" />
    <glyph glyph-name="hyphen" unicode="-" horiz-adv-x="700" 
d="M604 563l-20 -67h-437l21 67h436z" />
    <glyph glyph-name="period" unicode="." horiz-adv-x="370" 
d="M37 63q0 38 24.5 64.5t61.5 26.5q38 0 63 -27t25 -64t-25 -62.5t-63 -25.5t-62 25.5t-24 62.5z" />
    <glyph glyph-name="slash" unicode="/" horiz-adv-x="495" 
d="M690 1389l-891 -1592l-24 10l891 1594z" />
    <glyph glyph-name="zero" unicode="0" horiz-adv-x="1177" 
d="M782 1372q93 0 164.5 -37t115 -102.5t65.5 -150.5t22 -185q0 -165 -57 -332.5t-150 -298t-221.5 -213t-261.5 -82.5q-92 0 -163.5 37.5t-116 105t-67 157t-22.5 196.5q0 225 95 434.5t256 340t341 130.5zM465 0q106 0 197 74q153 126 240 359t87 556q0 193 -56 273.5
t-157 80.5q-112 0 -201 -75q-160 -135 -242.5 -383t-82.5 -531q0 -354 215 -354z" />
    <glyph glyph-name="one" unicode="1" horiz-adv-x="608" 
d="M578 1341l-29 -106l-264 -1059q-11 -49 -11 -76q0 -62 54 -80q16 -5 69 -10l-2 -10h-424l2 10l52 8q36 8 65 37q14 14 25 37.5t16 40.5t16 57l220 881q34 134 34 162q0 22 -18 27q-27 7 -90 16l-2 10q29 5 149 35q21 5 52 14.5t50.5 15t26.5 5.5q12 0 9 -15z" />
    <glyph glyph-name="two" unicode="2" horiz-adv-x="989" 
d="M666 956l12 -12q-40 -102 -115.5 -172t-179.5 -70q-102 0 -154.5 65t-52.5 165q0 60 21.5 122t65.5 119t105 101.5t146 71t182 26.5q124 0 216 -80.5t92 -226.5q0 -89 -43 -186t-109.5 -181t-158.5 -169.5t-178.5 -150.5t-180.5 -126q-135 -89 -180 -123l2 -2h499
q88 0 144 39q42 34 84 102h16l-129 -268h-846q107 71 162 115q186 138 253 193q515 424 515 833q0 101 -41 151.5t-145 50.5q-51 0 -104 -17t-103 -52t-89 -83t-63 -116t-24 -145q0 -81 40 -121.5t101 -40.5q82 0 139.5 47t100.5 141z" />
    <glyph glyph-name="three" unicode="3" horiz-adv-x="913" 
d="M891 1133q0 -56 -23 -107.5t-61 -92.5t-98 -82t-122 -73t-145 -69l2 -4q178 3 288 -87t110 -229q0 -68 -34.5 -140t-96 -134.5t-160.5 -103t-215 -40.5q-133 0 -234.5 75t-101.5 177q0 46 23.5 74.5t64.5 28.5q39 0 59.5 -25t20.5 -70q0 -27 -6 -61q-2 -8 -5.5 -23.5
t-6.5 -27.5t-3 -15q0 -40 54 -72t137 -32q67 0 127.5 27t108 76t76 126t28.5 170q0 152 -55.5 213.5t-151.5 61.5q-83 0 -145 -37l-60 -35l-12 25l137 80q10 6 51.5 29.5t60 35t57.5 38t59 46.5t49 53t43.5 64.5t25.5 74t11 87.5q0 97 -43.5 151.5t-133.5 54.5
q-115 0 -185.5 -80t-70.5 -186q0 -62 27.5 -95.5t79.5 -33.5q101 0 172 105l10 -9q-29 -59 -88.5 -105t-134.5 -46q-77 0 -116.5 45t-39.5 113q0 131 112.5 227t258.5 96q143 0 219 -70t76 -169z" />
    <glyph glyph-name="four" unicode="4" horiz-adv-x="925" 
d="M913 627l-90 -367h-12q15 78 -10 125q-29 57 -119 57h-94l-60 -249q-14 -60 -14 -99q0 -52 43 -69q28 -11 74 -15l-2 -10h-416l2 10q25 2 47 8q55 17 88 70q21 36 45 127l58 225h-465l4 13l782 893h35q4 0 4 -7l-31 -127l-188 -745h96q57 0 83.5 10t49.5 31q50 43 78 119
h12zM629 1137h-2l-586 -670h418z" />
    <glyph glyph-name="five" unicode="5" horiz-adv-x="976" 
d="M1030 1405q-76 -149 -168.5 -213t-240.5 -64q-110 0 -199 35l-160 -432l6 -2q128 131 293 131q136 0 226 -87.5t90 -231.5q0 -99 -44.5 -200.5t-119.5 -183.5t-183.5 -134t-226.5 -52q-141 0 -231 68t-90 164q0 47 24 76.5t64 29.5q77 0 77 -90q0 -21 -6 -61
q-8 -50 -8 -66q0 -43 50 -69.5t126 -26.5q177 0 295.5 162.5t118.5 414.5q0 124 -41 189t-143 65q-91 0 -178.5 -56t-141.5 -134l-20 8l260 698h10q38 -41 105.5 -64.5t142.5 -23.5q213 0 299 154z" />
    <glyph glyph-name="six" unicode="6" horiz-adv-x="1021" 
d="M999 1198q0 -50 -27.5 -84.5t-68.5 -34.5q-30 0 -52 20.5t-22 51.5q0 21 15 59q20 47 20 64q0 28 -21.5 46.5t-66.5 18.5q-81 0 -158 -56.5t-137.5 -151.5t-107.5 -211.5t-78 -245.5h8q64 92 148 143t178 51q128 0 207 -82t79 -235q0 -137 -63.5 -270.5t-176 -221.5
t-239.5 -88q-113 0 -191.5 55t-114.5 145t-36 208q0 152 45.5 304.5t120 273.5t164.5 216t186 147t178 52q211 0 211 -174zM770 537q0 139 -42 212.5t-140 73.5q-120 0 -221 -112q-61 -67 -97.5 -176t-36.5 -220q0 -66 10 -120t32 -99t62 -70.5t95 -25.5q79 0 146 56
t107.5 140t62.5 174t22 167z" />
    <glyph glyph-name="seven" unicode="7" horiz-adv-x="872" 
d="M1055 1343l-6 -30q-247 -278 -394 -531t-301 -637q-38 -96 -70.5 -136t-72.5 -40q-32 0 -50 23t-18 63q0 31 13 67t46.5 89t59 90t85 118t89.5 124q249 352 490 674v8h-533q-69 0 -104.5 -11t-55.5 -37t-43 -85h-16l68 303h12q5 -26 20.5 -39t57.5 -13h723z" />
    <glyph glyph-name="eight" unicode="8" horiz-adv-x="978" 
d="M68 295q0 80 32.5 148t89.5 117t126.5 83.5t152.5 56.5q-104 95 -153.5 171t-49.5 176q0 153 103.5 239t259.5 86q142 0 224.5 -70t82.5 -192q0 -67 -28.5 -125.5t-77.5 -100.5t-101.5 -71.5t-114.5 -52.5q77 -71 114.5 -109.5t72.5 -88.5t47 -97.5t12 -112.5
q0 -68 -29.5 -135.5t-83 -122.5t-137 -89t-182.5 -34q-88 0 -158.5 28t-113.5 74.5t-65.5 103t-22.5 118.5zM489 682q-139 -52 -214.5 -157.5t-75.5 -248.5q0 -117 63 -197.5t166 -80.5q121 0 215 79.5t94 211.5q0 58 -12 102t-46 91.5t-73.5 88t-116.5 111.5zM381 1112
q0 -84 49.5 -157t163.5 -177q103 38 161 121.5t58 210.5q0 236 -195 236q-99 0 -168 -59t-69 -175z" />
    <glyph glyph-name="nine" unicode="9" horiz-adv-x="1007" 
d="M41 162q0 47 26 76.5t66 29.5q36 0 59 -19.5t23 -55.5q0 -27 -16 -64q-4 -10 -10 -22.5t-8 -17t-3.5 -10.5t-1.5 -13q0 -24 29.5 -45t85.5 -21q78 0 153 47t134 123t107.5 170t79.5 188.5t44 178.5h-6q-67 -97 -155.5 -156t-184.5 -59q-77 0 -135 26.5t-91 73t-49 105
t-16 128.5q0 135 62 260.5t173 206t240 80.5q112 0 188.5 -59.5t111 -156.5t34.5 -224q0 -136 -27 -260t-72 -219t-104.5 -175.5t-124.5 -136t-131.5 -95t-125 -57.5t-105.5 -18q-68 0 -119.5 19t-78.5 49.5t-39.5 61.5t-12.5 61zM852 1032q0 82 -18 148.5t-66 114.5
t-121 48q-78 0 -142.5 -51t-104.5 -132t-61.5 -175t-21.5 -186q0 -122 44.5 -191t138.5 -69q86 0 161 55.5t132 150.5q59 96 59 287z" />
    <glyph glyph-name="colon" unicode=":" horiz-adv-x="409" 
d="M6 63q0 38 24.5 64.5t61.5 26.5q38 0 63 -27t25 -64t-25 -62.5t-63 -25.5t-62 25.5t-24 62.5zM195 774q0 38 24 64t62 26t63 -26.5t25 -63.5t-25 -62.5t-63 -25.5t-62 25.5t-24 62.5z" />
    <glyph glyph-name="semicolon" unicode=";" horiz-adv-x="399" 
d="M184 774q0 38 24 64t62 26t63 -26.5t25 -63.5t-25 -62.5t-63 -25.5t-62 25.5t-24 62.5zM180 51q0 -101 -78.5 -180t-205.5 -123l-9 19q27 11 56.5 27t66.5 40t60.5 53.5t23.5 57.5q0 20 -6 32q-82 13 -82 86q0 38 23.5 64.5t62.5 26.5q40 0 64 -28.5t24 -74.5z" />
    <glyph glyph-name="less" unicode="&#x3c;" horiz-adv-x="692" 
d="M610 227l-569 291v37l569 291v-35l-544 -274l544 -275v-35z" />
    <glyph glyph-name="equal" unicode="=" horiz-adv-x="849" 
d="M737 692h-665v33h665v-33zM737 334h-665v33h665v-33z" />
    <glyph glyph-name="greater" unicode="&#x3e;" horiz-adv-x="671" 
d="M631 518l-570 -291v35l545 275l-545 274v35l570 -291v-37z" />
    <glyph glyph-name="question" unicode="?" horiz-adv-x="837" 
d="M920 1112q0 -43 -9.5 -80.5t-24 -67.5t-42.5 -59t-55.5 -51t-73 -48.5t-84 -46t-99.5 -48.5q-177 -84 -222 -111q-103 -63 -117 -135q-3 -14 -3 -29q0 -58 33.5 -90.5t95.5 -32.5q51 0 94 19.5t91 70.5l12 -10q-98 -121 -215 -121q-82 0 -140.5 52t-58.5 143
q0 57 22 100.5t71.5 80.5t106.5 67.5t150 74.5q33 15 50 23q172 81 233.5 142.5t61.5 166.5q0 99 -61 158t-163 59q-123 0 -184 -66t-61 -165q0 -73 34 -115.5t87 -42.5q29 0 47 11t22 24q-17 11 -26 17.5t-20 26t-11 44.5q0 36 24.5 61t63.5 25q37 0 58.5 -24t21.5 -62
q0 -66 -62.5 -108.5t-138.5 -42.5q-88 0 -136 46t-48 119q0 67 43.5 131t129.5 108t193 44q146 0 228 -72.5t82 -185.5zM143 63q0 39 23 64t61 25q37 0 61.5 -25.5t24.5 -63.5t-24.5 -62t-61.5 -24q-38 0 -61 24t-23 62z" />
    <glyph glyph-name="at" unicode="@" horiz-adv-x="1437" 
d="M1391 543q0 -107 -34 -201.5t-89 -160.5t-123 -114.5t-136.5 -72t-129.5 -23.5q-44 0 -74.5 28.5t-30.5 82.5q0 15 1.5 29.5t5.5 30.5t6.5 25t8.5 27t7 23h-6q-72 -107 -121 -156t-89 -69.5t-87 -20.5q-68 0 -120 59.5t-52 176.5q0 75 22 158.5t64.5 160.5t97 139.5
t125.5 100t145 37.5q60 0 94 -40t42 -99h4q49 113 55 124h100q-14 -45 -43 -141t-57 -182q-39 -118 -67.5 -238t-28.5 -149q0 -49 57 -49q52 0 109 20.5t113 64t101 103t73 145.5t28 183q0 269 -154.5 409t-425.5 140q-206 0 -380 -99.5t-275.5 -274t-101.5 -384.5
q0 -212 90 -366t245.5 -231t358.5 -77q175 0 300.5 31t254.5 92l8 -21q-116 -58 -248.5 -92t-314.5 -34q-223 0 -387.5 88t-250 245t-85.5 365q0 164 63.5 310t170 249t251 163t301.5 60q295 0 452 -152.5t157 -422.5zM893 604q0 178 -117 178q-104 0 -201 -164
q-68 -114 -95 -234.5t-27 -211.5q0 -73 22 -111t60 -38q57 0 131 67q43 39 114 150q46 74 64 133q49 152 49 231z" />
    <glyph glyph-name="A" unicode="A" horiz-adv-x="1040" 
d="M670 356l41 164h-365l-244 -289q-67 -78 -67 -129q0 -45 39 -69q32 -18 82 -23l-2 -10h-367l2 10q17 4 55 19q80 36 189 161l981 1156h41l-246 -1010q-49 -191 -49 -242q0 -29 13 -44t40 -27q21 -9 53 -13l-2 -10h-422l2 10q37 5 48 8q54 10 88 66q32 55 84 248z
M858 1126l-491 -581h350l151 581h-10z" />
    <glyph glyph-name="B" unicode="B" horiz-adv-x="1093" 
d="M1044 1090q0 -144 -110 -241.5t-272 -125.5l-3 -6q148 -20 240 -107.5t92 -197.5q0 -50 -22 -106t-66 -110t-102.5 -98t-139 -71t-167.5 -27h-572l2 10q23 3 64 15q58 19 78 57q32 55 90 274l168 674q43 176 43 219q0 29 -12 46t-40 28q-19 8 -55 12l2 11h402
q75 0 138 -11.5t120 -39t89.5 -79.5t32.5 -126zM844 465q0 113 -79 177.5t-233 64.5h-147l-109 -433q-28 -121 -28 -161q0 -42 18 -60q23 -26 109 -26h80q121 0 211 60t134 158t44 220zM903 1098q0 100 -53 160.5t-164 60.5h-45q-35 0 -63 -12q-9 -3 -16.5 -9t-13 -12
t-11 -17.5t-9 -19.5t-9 -25.5t-8.5 -27.5t-9 -33.5t-10 -36.5l-101 -393h193q64 0 127.5 28t103.5 68q88 88 88 269z" />
    <glyph glyph-name="C" unicode="C" horiz-adv-x="1130" 
d="M1227 1317l-103 -385h-12q17 411 -260 411q-120 0 -244 -88q-44 -31 -88.5 -79t-91.5 -122.5t-82.5 -160.5t-58.5 -201t-23 -237q0 -225 105 -344q70 -78 194 -78q68 0 132 26.5t113 67t94 96.5t75 106.5t55 104.5l25 -12q-25 -53 -57 -107t-83 -118.5t-107 -112.5
t-130.5 -80.5t-151.5 -32.5q-96 0 -171.5 31t-122.5 81t-77.5 118.5t-42.5 137.5t-12 144q0 154 47 295.5t126 247t178.5 185t208 120.5t210.5 41q105 0 175.5 -42t101.5 -95h8l57 82h13z" />
    <glyph glyph-name="D" unicode="D" horiz-adv-x="1275" 
d="M1245 834q0 -465 -420 -721q-187 -113 -403 -113h-500l2 10q26 3 53 10q67 18 89 62q35 61 88 274l172 672q45 173 45 223q0 28 -11.5 42.5t-33.5 25.5q-23 11 -62 16l2 11h453q120 0 221.5 -43.5t167 -116t101.5 -163.5t36 -189zM1083 852q0 121 -25.5 220t-74.5 153
q-51 57 -119.5 75.5t-152.5 18.5h-82q-19 0 -35 -4.5t-26.5 -8.5t-21 -18t-15.5 -20.5t-12.5 -29t-10 -30.5t-10 -38t-9.5 -40l-215 -856q-28 -121 -28 -157q0 -43 18 -64q23 -26 94 -26h64q217 0 389 145q118 100 195 275.5t77 404.5z" />
    <glyph glyph-name="E" unicode="E" horiz-adv-x="1075" 
d="M1044 1346v-332h-12q-7 42 -11.5 62.5t-15 59t-21 59t-30.5 48t-43.5 41.5t-58.5 24.5t-78 10.5h-131q-113 0 -147 -145l-113 -461h121q65 0 109.5 12t75 42.5t48.5 64t41 92.5h13l-113 -449h-12q4 50 4 74q0 26 -1 40.5t-6 32.5t-15.5 28t-28 19t-45.5 13t-66 4h-133
l-105 -412q-28 -112 -28 -153q0 -52 27 -73t81 -21h137q77 0 148.5 28t116.5 64q62 50 122 122.5t97 137.5h12l-141 -379h-920l2 10q34 0 61 8t49 34t35 43t30.5 69t24.5 75.5t26 96.5q2 7 3.5 12t2.5 10l168 670q42 174 45 223q0 42 -32.5 63t-76.5 21l2 11h782z" />
    <glyph glyph-name="F" unicode="F" horiz-adv-x="980" 
d="M1067 1346l6 -308h-12q-35 120 -84 191q-61 90 -193 90h-141q-124 0 -160 -145l-104 -435h168q69 0 106 7.5t62 29.5q32 28 62 79t46 95h13l-113 -448h-12q15 122 -13 162q-31 49 -143 49h-182l-97 -377q-49 -191 -49 -240q0 -29 12 -44.5t37 -26.5t58 -15l-2 -10h-410
l2 10q28 4 37 6q25 7 51.5 25t40.5 43q38 70 88 272l170 674q45 173 45 221q0 29 -12.5 44t-42.5 28q-19 9 -53 12l2 11h817z" />
    <glyph glyph-name="G" unicode="G" horiz-adv-x="1241" 
d="M1223 608l-2 -10l-39 -8q-65 -21 -99 -82q-32 -65 -67 -221l-58 -254h-10q-12 16 -33 16q-22 0 -71 -24q-41 -21 -110 -37.5t-120 -16.5q-105 0 -192 28.5t-145 77t-98.5 114t-58.5 137t-18 149.5q0 161 49 306t129.5 250.5t182.5 183t211 116.5t211 39q49 0 89.5 -9.5
t66.5 -22.5t48.5 -33.5t34 -36.5t23.5 -37h8l57 84h13l-103 -387h-12q7 215 -49 315.5t-180 100.5q-81 0 -140.5 -21t-124.5 -68q-42 -30 -85 -74t-92.5 -118t-87 -160.5t-62.5 -208.5t-25 -256q0 -249 123 -368q41 -38 104 -59t113 -21q69 0 122.5 16t78.5 41q34 34 72 191
l38 163q17 75 17 117q0 49 -43 66q-19 8 -58 12l3 10h389z" />
    <glyph glyph-name="H" unicode="H" horiz-adv-x="1226" 
d="M1376 1346l-2 -11l-20 -3q-21 -3 -31 -5q-28 -7 -57 -25t-41 -42q-8 -14 -16 -34t-13.5 -37t-14 -47t-12.5 -46t-13.5 -54.5t-12.5 -52.5l-160 -651q-47 -196 -47 -242q0 -29 12.5 -44.5t42.5 -28.5q11 -5 51 -13l-2 -10h-419l2 10q14 0 41 6q67 22 92 70q44 79 92 272
l80 316h-555l-84 -336q-45 -179 -45 -240q0 -29 12 -46t43 -29q26 -10 45 -13l-2 -10h-420l2 10q29 0 53 6q63 19 89 70q32 54 88 272l161 652q45 176 45 241q0 29 -11.5 44.5t-41.5 27.5q-4 2 -55 12l2 11h426l-2 -11q-34 -5 -45 -8q-73 -22 -101 -67q-12 -20 -24 -54.5
t-18.5 -58.5t-20 -81t-18.5 -77l-72 -289h555l74 310q47 183 47 241q0 30 -13 46t-45 28q-8 3 -43 10l2 11h420z" />
    <glyph glyph-name="I" unicode="I" horiz-adv-x="534" 
d="M680 1346l-2 -11q-41 0 -76 -16q-50 -24 -72 -62q-5 -9 -10.5 -19.5t-10.5 -24t-8.5 -25t-8.5 -30t-8.5 -29.5t-8.5 -33.5t-7.5 -33t-8.5 -36t-8 -35.5l-162 -657q-47 -190 -47 -238q0 -30 11 -46t38 -27q21 -9 57 -13l-2 -10h-426l2 10q38 4 55 8q59 14 86 66
q42 73 91 270l161 658q45 176 45 237q0 55 -51 74q-25 9 -55 12l2 11h424z" />
    <glyph glyph-name="J" unicode="J" horiz-adv-x="753" 
d="M911 1346l-2 -11q-46 -7 -63 -12q-52 -16 -84 -66q-10 -16 -19 -37t-18 -52t-14.5 -52t-15.5 -64.5t-15 -62.5l-166 -686q-14 -57 -43.5 -112.5t-74.5 -106.5t-112 -82t-145 -31q-82 0 -146.5 54t-64.5 135q0 49 26.5 78.5t70.5 29.5q42 0 63 -23.5t21 -58.5
q0 -20 -6 -37t-11.5 -25.5t-19.5 -25.5l-15.5 -15.5t-13 -12.5t-7.5 -9.5t-3 -11.5q0 -21 33 -37t69 -16q93 0 141 55q53 63 95 238l176 721q49 191 49 241t-49 70q-21 9 -60 14l2 11h422z" />
    <glyph glyph-name="K" unicode="K" horiz-adv-x="1169" 
d="M1294 1346l-2 -11q-61 -10 -135 -51q-72 -38 -147 -106l-478 -441l5 -4q38 21 92 21q120 0 178.5 -91t77.5 -290q22 -230 33 -277q19 -76 57 -78q39 0 73.5 43.5t49.5 90.5l20 -7q-37 -94 -83 -134t-111 -40q-89 0 -135 70t-56 244q-4 67 -4.5 134.5t-5.5 125.5
q-9 93 -42 133.5t-95 40.5q-55 0 -96.5 -25.5t-135.5 -113.5l-61 -244q-45 -188 -45 -240q0 -46 55 -69q25 -11 62 -17l-7 -10h-436l2 10q34 4 64 15q55 19 78 59q38 70 88 272l161 654q47 196 47 241q0 29 -8 44t-30 24q-27 11 -70 16l2 11h440l-2 -11q-50 -5 -73 -12
q-58 -18 -84 -63q-12 -21 -23.5 -54.5t-18.5 -60t-20 -78.5t-20 -78l-95 -375l578 533q43 39 66.5 72t23.5 69q0 28 -22 37q-16 7 -54 10l4 11h338z" />
    <glyph glyph-name="L" unicode="L" horiz-adv-x="1040" 
d="M950 352l-139 -352h-889l2 10q38 4 53 8q26 6 51 24.5t38 43.5q37 64 88 270l163 656q45 176 45 239q0 57 -53 74q-9 3 -53 10l2 11h436l-2 -11q-44 -6 -63 -12q-64 -18 -94 -72q-10 -18 -20.5 -50t-17 -57t-20.5 -78t-20 -77l-181 -715q-26 -118 -26 -155q0 -43 18 -64
q25 -28 92 -28h97q167 0 270 82q55 43 116 113t97 130h10z" />
    <glyph glyph-name="M" unicode="M" horiz-adv-x="1525" 
d="M1675 1346l-2 -11q-47 -8 -61 -12q-57 -17 -88 -63q-13 -20 -25.5 -54t-19 -59t-19.5 -81t-18 -77l-160 -655q-45 -176 -45 -230q0 -63 49 -84q14 -6 55 -12l-2 -8h-424v8q13 0 43 6q55 12 93 66q46 70 92 274l200 834h-6l-729 -1196h-53l-166 1169h-4l-223 -897
q-23 -94 -23 -151q0 -78 54 -93q23 -7 59 -10l-4 -10h-334l6 10q37 5 53 10q52 15 82 52q42 57 64 145l203 815q36 148 36 201q0 68 -59 90q-11 5 -55 12l2 11h264l164 -1180h4l721 1180h276z" />
    <glyph glyph-name="N" unicode="N" horiz-adv-x="1198" 
d="M1343 1346l-2 -11q-33 -5 -45 -10q-47 -15 -75 -55q-38 -53 -72 -189l-275 -1097h-24l-471 1128h-8l-209 -848q-23 -90 -23 -149q0 -75 56 -95q17 -6 59 -10l-2 -10h-336l2 10q44 6 51 8q55 16 86 54q41 48 66 155l198 797q27 110 27 154q0 48 -25 86.5t-59 54.5
q-21 12 -59 18l2 9h239l453 -1123h6l209 832q29 116 29 170q0 36 -17.5 61.5t-46.5 36.5q-19 8 -59 12l2 11h323z" />
    <glyph glyph-name="O" unicode="O" horiz-adv-x="1243" 
d="M1210 854q0 -183 -75 -374t-201 -314q-201 -195 -416 -195q-83 0 -156.5 31.5t-131.5 93t-92 163.5t-34 233q0 185 72.5 370.5t206.5 319.5q190 190 412 190q84 0 157 -30t131.5 -90t92.5 -162t34 -236zM1063 963q0 88 -15.5 156t-41 109.5t-61 68t-71.5 36.5t-77 10
q-132 0 -246 -102q-113 -105 -206 -349.5t-93 -510.5q0 -381 268 -381q131 0 232 88q112 97 211.5 350t99.5 525z" />
    <glyph glyph-name="P" unicode="P" horiz-adv-x="993" 
d="M1071 1057q0 -115 -59 -196.5t-178 -145.5q-69 -37 -145.5 -55.5t-207.5 -18.5h-129l-76 -307q-45 -176 -45 -240q0 -42 39 -65q23 -14 66 -19l-2 -10h-416l2 10q19 2 51 13q51 16 76 59q39 64 90 272l170 674q45 173 45 225q0 50 -47 68q-23 9 -61 14l2 11h448
q190 0 283.5 -81t93.5 -208zM920 1104q0 98 -56.5 156.5t-167.5 58.5h-84q-30 0 -48 -6t-34 -25q-21 -29 -49 -131l-121 -489h129q193 0 299 98q54 49 93 145t39 193z" />
    <glyph glyph-name="Q" unicode="Q" horiz-adv-x="1269" 
d="M1118 -602q-89 0 -174 39.5t-190 140.5q-21 19 -59.5 55.5t-54 51t-45.5 41.5t-45 37t-40.5 27.5t-42.5 23.5t-41.5 14.5t-48 11t-51.5 2.5q-45 0 -81 -22t-36 -45q0 -13 16 -37q19 -24 19 -53q0 -38 -22.5 -61t-53.5 -23q-32 0 -54 21t-22 59q0 37 30.5 73t80.5 64
t84.5 43.5t72.5 29.5l172 62q-186 6 -300.5 147t-114.5 392q0 186 82.5 375.5t210.5 314.5q193 190 413 190q189 0 295.5 -149.5t106.5 -391.5q0 -129 -38 -265t-121 -268t-198 -214q-19 -13 -37 -25t-36 -22t-32 -18t-31 -16t-27 -12.5t-26 -10.5t-21.5 -8t-20.5 -7.5
t-16 -5.5q-39 -12 -143 -48t-130 -48v-2q112 8 201.5 -15.5t139 -54t150.5 -107.5q23 -17 35 -26q79 -58 117 -82t90 -40.5t117 -16.5q90 0 149.5 49t106.5 133l16 -8q-72 -143 -151 -217q-86 -78 -201 -78zM1073 961q0 199 -68 290.5t-184 91.5q-118 0 -235 -102
q-50 -44 -103.5 -126.5t-103 -194t-81.5 -258.5t-32 -295q0 -101 25.5 -178.5t67 -121.5t89 -65.5t97.5 -21.5q112 0 221 94q75 63 143 188.5t116 313.5t48 385z" />
    <glyph glyph-name="R" unicode="R" horiz-adv-x="1142" 
d="M1110 143q-40 -96 -82 -134t-102 -38q-41 0 -71.5 12t-58 42.5t-42 90.5t-15.5 148q-2 171 -12 226q-14 79 -53 120q-35 37 -76 49.5t-123 12.5h-115l-86 -336q-49 -191 -49 -242q0 -42 45 -65q25 -14 60 -19l-2 -10h-410l2 10q21 3 47 10q56 18 82 64q38 70 88 272
l170 672q45 173 45 223q0 51 -47 70q-16 7 -61 16l2 9h463q370 0 370 -240q0 -112 -81 -213.5t-197 -157.5q-70 -34 -178 -51v-6q87 -18 141 -60q68 -52 95 -123.5t40 -199.5q3 -26 7 -73q10 -118 21.5 -161t45.5 -43q57 0 117 132zM926 1104q0 112 -47.5 163.5t-147.5 51.5
h-94q-80 0 -113 -43q-11 -13 -21 -38.5t-14.5 -42.5t-17.5 -67l-104 -428h110q131 0 203.5 20t118.5 58q56 48 91.5 138t35.5 188z" />
    <glyph glyph-name="S" unicode="S" horiz-adv-x="913" 
d="M934 1337l-51 -352h-17q-7 98 -19 159.5t-40 106.5q-30 48 -77.5 72.5t-131.5 24.5q-105 0 -173.5 -61.5t-68.5 -176.5q0 -34 5 -64t17.5 -58t22 -46.5t32 -45t32 -36.5t38 -38t34.5 -34q24 -24 67.5 -65t65 -62.5t52 -58.5t45 -67t25.5 -73t11 -91q0 -96 -42.5 -175.5
t-108 -126.5t-139 -72.5t-142.5 -25.5q-102 0 -178 41t-115 94h-10l-82 -83h-9l93 409h16q6 -228 69 -331t228 -103q68 0 123 27.5t89.5 72t52.5 99t18 110.5q0 33 -6 63t-24.5 62.5t-31 53t-47 57t-49 51.5t-59.5 59q-8 8 -38.5 37t-40.5 39.5t-35 38t-35 43.5t-27 44.5
t-23.5 52.5t-12.5 56t-6 66q0 140 99.5 242t271.5 102q84 0 154 -29t104 -77h4l58 69h12z" />
    <glyph glyph-name="T" unicode="T" horiz-adv-x="1130" 
d="M1274 1346l-29 -312h-12q-13 93 -34 138q-19 41 -48 75q-35 41 -88.5 57.5t-134.5 16.5h-88l-244 -985q-45 -178 -45 -242q0 -31 11 -46.5t42 -27.5q23 -10 53 -10l-2 -10h-426l2 10q20 0 52 8q61 18 88 64q35 60 88 274l239 965h-90q-141 0 -243 -74q-87 -67 -187 -213
h-12l106 312h1002z" />
    <glyph glyph-name="U" unicode="U" horiz-adv-x="1220" 
d="M1384 1346l-2 -11q-31 -4 -45 -8q-45 -15 -75 -57q-32 -45 -76 -209l-158 -623q-62 -243 -177.5 -355t-328.5 -112q-167 0 -276 87.5t-109 252.5q0 98 35 242l113 457q45 176 45 239q0 52 -54 74q-18 8 -53 12l4 11h422l-2 -11q-30 -4 -49 -10q-29 -8 -55.5 -27
t-40.5 -45q-9 -16 -17.5 -37t-14.5 -38t-14 -47.5t-12 -46t-13 -54t-13 -53.5l-131 -555q-21 -88 -21 -180q0 -112 71 -175t191 -63q109 0 189.5 31.5t133.5 93.5t85.5 135t58.5 176l156 617q29 116 29 168q0 69 -66 98q-16 8 -57 12l2 11h325z" />
    <glyph glyph-name="V" unicode="V" horiz-adv-x="1069" 
d="M1335 1346l-2 -11q-28 -4 -51 -14q-35 -16 -68.5 -42.5t-54.5 -49t-63 -70.5l-973 -1159h-70l248 1010q45 188 45 239q0 53 -53 74q-19 8 -55 12l2 11h426l-2 -11q-4 -1 -13 -1.5t-18.5 -2t-18.5 -4.5q-64 -19 -94 -67q-38 -60 -90 -273l-188 -790h8l764 911
q39 46 54 76.5t15 60.5q0 45 -39 68q-32 17 -81 22l2 11h370z" />
    <glyph glyph-name="W" unicode="W" horiz-adv-x="1681" 
d="M692 -2l226 977l-828 -977h-37l248 1014q45 188 45 239q0 31 -10.5 47t-38.5 25q-25 7 -59 12l4 11h428l-2 -11q-49 -7 -58 -10q-65 -20 -86 -61q-39 -68 -90 -273l-182 -745h10l670 788l20 90q23 104 23 127q0 53 -51 70q-25 10 -62 14l4 11h422l-2 -11q-33 -5 -49 -10
q-58 -19 -90 -63q-28 -39 -43 -87.5t-47 -185.5l-166 -741h10l727 860q68 80 68 139q0 49 -39 68q-35 15 -82 20l2 11h371l-2 -11q-49 -12 -66 -20q-77 -38 -186 -172l-965 -1145h-37z" />
    <glyph glyph-name="X" unicode="X" horiz-adv-x="1021" 
d="M584 240l-86 381l-326 -388q-50 -61 -70 -94.5t-20 -64.5q0 -26 27 -45q22 -15 53 -19l-2 -10h-301l2 10q48 10 71 21q37 18 70 51q14 14 133 151l354 422l-104 473q-18 86 -49 132q-30 40 -74 57q-25 10 -61 18l2 11h436l-2 -11q-34 -4 -55 -10q-40 -12 -56 -32t-16 -52
q0 -26 25 -135l73 -338l281 342q30 36 46 57.5t31 51t15 51.5q0 34 -31 49q-18 9 -49 16l2 11h297l-2 -11q-36 -7 -70 -22q-42 -21 -84 -66q-26 -26 -116 -133l-312 -381l117 -520q18 -78 45 -123q9 -16 22.5 -28.5t23 -18t28.5 -14.5q28 -14 63 -19l-2 -10h-442l2 10
q44 5 62 10q42 10 58.5 31t16.5 58q0 11 -26 131z" />
    <glyph glyph-name="Y" unicode="Y" horiz-adv-x="962" 
d="M1210 1346l-2 -11q-35 -5 -69 -16q-45 -15 -84.5 -55t-122.5 -158l-365 -514l-61 -256q-49 -203 -49 -240q0 -42 41 -65q28 -16 65 -21l-2 -10h-424l2 10q30 3 64 13q56 15 82 63q30 50 65 199l70 305l-168 633q-5 17 -10.5 31t-13 24.5t-13 18t-15.5 13.5t-15 9.5
t-17.5 6.5t-16 3.5t-17 3t-15.5 2.5l2 11h395l-2 -11q-40 -5 -61 -14q-52 -18 -52 -68q0 -14 3 -30t10.5 -43t11.5 -43l125 -512h6l346 489q74 104 74 166q0 36 -45 47q-22 5 -45 8l2 11h321z" />
    <glyph glyph-name="Z" unicode="Z" horiz-adv-x="1085" 
d="M1225 1346l-2 -11l-1108 -1310h188q138 0 223.5 17t163.5 54q85 39 146.5 90.5t148.5 143.5h12l-186 -330h-872l2 10l1097 1311h-237q-197 0 -336 -86q-53 -33 -101.5 -79.5t-134.5 -139.5h-14l188 330h822z" />
    <glyph glyph-name="bracketleft" unicode="[" horiz-adv-x="802" 
d="M977 1384q0 -87 -56 -148.5t-155 -61.5q-66 0 -134.5 22t-109 45.5t-92.5 58.5l-364 -1462q78 46 182 85.5t188 39.5q162 0 162 -133q0 -38 -22 -82.5t-56 -73.5l-14 11l4 5q5 5 6 6.5t5 6.5t5.5 7.5t4.5 8t4 9.5t3 10t2.5 12.5t0.5 13.5q0 50 -35 74.5t-119 24.5
q-216 0 -369 -76l390 1556q151 -63 329 -63q60 0 104 13.5t66.5 35.5t32.5 45.5t10 48.5q0 22 -6 37h14q19 -28 19 -76z" />
    <glyph glyph-name="backslash" unicode="\" horiz-adv-x="632" 
d="M520 -197l-26 -4l-279 1592l27 6z" />
    <glyph glyph-name="bracketright" unicode="]" horiz-adv-x="808" 
d="M-150 -250q0 88 56 150.5t155 62.5q68 0 137.5 -23.5t106 -45.5t92.5 -60l365 1462q-78 -46 -182.5 -85.5t-188.5 -39.5q-162 0 -162 134q0 38 22 82t56 73l15 -10q-35 -40 -35 -80q0 -50 34.5 -74t118.5 -24q216 0 369 76l-389 -1557q-158 66 -330 66q-62 0 -106 -14
t-66 -37t-31.5 -46t-9.5 -49q0 -22 6 -37h-14q-19 28 -19 76z" />
    <glyph glyph-name="asciicircum" unicode="^" horiz-adv-x="692" 
d="M150 838l260 508h36l261 -508h-35l-244 483l-244 -483h-34z" />
    <glyph glyph-name="underscore" unicode="_" horiz-adv-x="604" 
d="M430 -322h-625v33h625v-33z" />
    <glyph glyph-name="grave" unicode="`" horiz-adv-x="866" 
d="M879 1065l-7 -8q-24 12 -210 119q-57 32 -79 53.5t-22 48.5q0 21 12.5 37t40.5 16q27 0 47 -15t62 -63q124 -146 156 -188z" />
    <glyph glyph-name="a" unicode="a" horiz-adv-x="862" 
d="M817 217q-54 -96 -123 -165.5t-139 -69.5q-42 0 -70 28t-28 86q0 34 26 127h-2q-57 -101 -123 -164q-49 -45 -86.5 -61t-87.5 -16q-28 0 -55 11.5t-54 36.5t-44 76t-17 121q0 93 41.5 206t106.5 210t154 163t176 66q114 0 135 -147h2q7 20 55 129h98q-17 -54 -71 -233
t-74 -242q-70 -226 -70 -289q0 -41 37 -41q82 0 193 178zM598 684q0 72 -26.5 119t-82.5 47q-59 0 -105 -40t-97 -120q-67 -106 -106.5 -250t-39.5 -239q0 -78 24 -121t68 -43q64 0 121 59q52 52 107 146q42 74 89.5 224.5t47.5 217.5z" />
    <glyph glyph-name="b" unicode="b" horiz-adv-x="778" 
d="M717 596q0 -256 -168 -457q-65 -75 -142 -116t-153 -41q-92 0 -157.5 72.5t-65.5 187.5q0 94 61 284l215 672q4 11 10.5 30.5t9 26.5t6.5 20t5.5 20t2.5 16t1 18q0 29 -29 43q-25 12 -73 19l4 10h239q11 0 11 -10q0 -4 -3.5 -13.5t-11 -27t-12.5 -31.5q-24 -63 -61 -176
l-142 -441h6q115 170 242 170q205 0 205 -276zM590 659q0 90 -24.5 132.5t-76.5 42.5q-61 0 -127 -60q-69 -65 -114 -164q-47 -101 -79 -232.5t-32 -209.5q0 -160 119 -160q81 0 140.5 62t107.5 176q34 80 60 195t26 218z" />
    <glyph glyph-name="c" unicode="c" horiz-adv-x="626" 
d="M621 737q0 -34 -18 -58t-50 -24q-35 0 -51.5 17t-16.5 41q0 23 11 41q5 9 13.5 19.5t13.5 17t5 10.5q0 45 -69 45q-80 0 -146 -82q-76 -96 -129 -271t-53 -313q0 -83 32 -121.5t81 -38.5q90 0 159 66.5t115 155.5l21 -13q-53 -106 -135 -175.5t-187 -69.5
q-97 0 -150 73.5t-53 190.5q0 139 51 265.5t142 223.5q63 66 131.5 100.5t128.5 34.5q24 0 48 -6t49 -20t41 -42.5t16 -66.5z" />
    <glyph glyph-name="d" unicode="d" horiz-adv-x="884" 
d="M967 1391q0 -7 -25 -78l-59 -176l-230 -738q-73 -245 -73 -309q0 -23 8 -32t26 -9q83 0 199 182l21 -10q-24 -41 -53 -79.5t-65 -75.5t-76.5 -59.5t-78.5 -22.5q-41 0 -69.5 28t-28.5 80q0 58 24 125h-6q-54 -87 -106 -139q-51 -51 -93.5 -73.5t-93.5 -22.5
q-26 0 -53.5 10.5t-58 35t-49.5 75.5t-19 122q0 142 66 292t179 252.5t234 102.5q59 0 96.5 -42t43.5 -115h6l158 483q32 101 32 133q0 31 -30 43q-24 11 -70 17l4 10h229q11 0 11 -10zM602 676q0 73 -29 121.5t-88 48.5q-109 0 -202 -152q-71 -116 -110.5 -255.5
t-39.5 -239.5q0 -158 105 -158q60 0 124 61q36 35 58 64.5t53 79.5q52 86 90.5 220.5t38.5 209.5z" />
    <glyph glyph-name="e" unicode="e" horiz-adv-x="641" 
d="M557 610q-67 -54 -178.5 -110t-216.5 -94q-31 -121 -31 -216q0 -91 30.5 -131.5t90.5 -40.5q79 0 151 69.5t113 154.5l21 -11q-56 -108 -137.5 -178.5t-182.5 -70.5q-94 0 -149.5 73.5t-55.5 190.5q0 265 205 483q62 67 133.5 105t136.5 38q68 0 106 -31.5t38 -88.5
q0 -83 -74 -142zM451 846q-58 0 -115.5 -63t-98.5 -154t-69 -199q219 81 287 162q57 68 57 170q0 36 -15 60t-46 24z" />
    <glyph glyph-name="f" unicode="f" horiz-adv-x="516" 
d="M821 1303q0 -32 -16.5 -48t-44.5 -16q-66 0 -66 61q0 3 2.5 32.5t-0.5 33.5q-5 31 -41 31q-50 0 -86 -58q-84 -136 -172 -485h205l-8 -29h-201q-38 -161 -80 -304.5t-93 -288t-109 -259t-122 -205t-138.5 -139.5t-151.5 -49q-75 0 -124.5 31t-49.5 84q0 35 17.5 54.5
t43.5 19.5q51 0 64 -50q3 -13 4.5 -41t3.5 -36q5 -35 51 -35q85 0 168 102q54 66 101.5 163.5t96.5 251t83.5 278t93.5 352.5l18 71h-174l8 29h172q54 214 113.5 338.5t125 173.5t153.5 49q59 0 106 -30.5t47 -81.5z" />
    <glyph glyph-name="g" unicode="g" horiz-adv-x="745" 
d="M805 805q0 -30 -15.5 -49t-41.5 -19q-37 0 -60 39q-2 4 -6 11.5t-6.5 10.5t-6.5 7.5t-8.5 6t-11.5 1.5q-16 0 -28.5 -22t-12.5 -39q0 -9 3 -19t9 -24l9 -21q14 -38 14 -84q0 -120 -97 -215.5t-227 -95.5q-52 0 -92 24q-133 -31 -133 -108q0 -48 43.5 -69t159.5 -40
q56 -9 90 -15.5t76 -18.5t66 -27.5t46.5 -39t32.5 -56.5t10 -76q0 -130 -108 -216.5t-291 -86.5q-167 0 -265.5 61t-98.5 152q0 79 83.5 136.5t206.5 82.5v4q-60 18 -92.5 60t-32.5 96q0 71 55.5 116t133.5 60q-54 37 -86.5 99.5t-32.5 131.5q0 121 95.5 215t228.5 94
q55 0 99 -26.5t71 -73.5h6q39 102 143 102q34 0 53 -20t19 -49zM526 655q0 87 -24 139t-88 52q-105 0 -164 -125q-43 -93 -43 -205q0 -194 117 -194q52 0 89 31t70 98q43 89 43 204zM522 -186q0 57 -35.5 93t-117.5 54q-93 20 -187 31q-30 -10 -44 -15.5t-45 -19.5
t-48.5 -28.5t-38 -35.5t-30 -49t-9.5 -61q0 -90 68 -141.5t198 -51.5q129 0 209 59.5t80 164.5z" />
    <glyph glyph-name="h" unicode="h" horiz-adv-x="903" 
d="M823 217q-36 -59 -74.5 -107t-94.5 -88t-109 -40q-40 0 -63 23t-23 61q0 16 2.5 34.5t9 44.5t13 48.5t18.5 60t21 64t25 75t27 80.5q9 28 24.5 73.5t25.5 75t20.5 63t15.5 56t5 35.5q0 45 -39 45q-81 0 -199 -133t-221 -377q-29 -67 -111 -311h-119l396 1198
q30 102 30 133q0 27 -16 41q-19 16 -65 19l4 10h215q10 0 10 -10q0 -4 -4 -16t-11.5 -32t-11.5 -34q-1 -2 -61 -185l-207 -628h8q109 187 216.5 285t199.5 98q98 0 98 -111q0 -16 -3.5 -37.5t-11 -50.5t-14.5 -54t-20 -64t-21.5 -63.5t-23.5 -69t-22 -64.5
q-84 -245 -84 -289q0 -16 6.5 -21.5t19.5 -5.5q43 0 98 53t101 125z" />
    <glyph glyph-name="i" unicode="i" 
d="M416 219q-56 -95 -130 -166t-151 -71q-39 0 -61.5 25t-22.5 73q0 32 22 107t64 197t49 144q9 28 22.5 69.5t20 62t14 46.5t10.5 43.5t3 32.5q0 41 -29 41q-27 0 -62.5 -36.5t-86.5 -120.5l-19 12q111 194 226 194q38 0 61 -25.5t23 -76.5q0 -30 -13 -83.5t-28 -98.5
t-39 -115t-33 -98q-84 -248 -84 -293q0 -33 23 -33q45 0 100.5 53.5t101.5 126.5zM295 1227q0 34 21 56t55 22t56 -22t22 -56t-22 -55t-56 -21t-55 21t-21 55z" />
    <glyph glyph-name="j" unicode="j" horiz-adv-x="454" 
d="M385 770q0 -57 -147 -518q-97 -307 -140.5 -411t-97.5 -167q-48 -57 -108.5 -83.5t-112.5 -26.5q-75 0 -116.5 38.5t-41.5 84.5q0 35 18 57.5t48 22.5q32 0 48.5 -18.5t16.5 -49.5q0 -14 -8 -47q-4 -20 -4 -29q0 -14 13.5 -22.5t33.5 -8.5q77 0 131 93q44 76 209 596
q66 200 92 299q45 154 45 198q0 41 -33 41q-26 0 -55.5 -29.5t-89.5 -123.5l-18 10q110 196 223 196q43 0 68.5 -25.5t25.5 -76.5zM326 1227q0 34 21 56t54 22q34 0 56 -22t22 -56t-22 -55t-56 -21t-54.5 21t-20.5 55z" />
    <glyph glyph-name="k" unicode="k" horiz-adv-x="815" 
d="M842 784q0 -36 -19 -55.5t-51 -19.5q-23 0 -39 14.5t-16 38.5q0 14 4 26q8 24 8 29q0 12 -14 12q-22 0 -46 -26.5t-41 -57t-47 -88.5q-3 -5 -4.5 -8.5t-3.5 -7.5q-46 -89 -127 -127v-6q45 -14 75 -35t44 -47.5t18.5 -49.5t4.5 -52q0 -42 -27 -152q-18 -71 -18 -98
q0 -15 7 -25t19 -10q29 0 75.5 45.5t82.5 103.5l16 -10q-48 -78 -110.5 -136t-128.5 -58q-37 0 -58.5 26t-21.5 60q0 10 0.5 19t3 21.5l4 20t6 24.5t6.5 24.5t9 31t10 33.5q22 75 22 137q0 73 -34.5 95t-104.5 22h-88l-166 -498h-117l406 1198q35 100 35 127q0 31 -21 47
t-63 19l4 10h219q10 0 10 -10q0 -4 -3.5 -14t-11.5 -28.5t-13 -33.5q-36 -98 -60 -172l-209 -619h105q109 0 182 142q4 7 15 29t15.5 30t14.5 26t17 28t16 22.5t18 21.5q48 51 107 51q40 0 62 -26.5t22 -63.5z" />
    <glyph glyph-name="l" unicode="l" horiz-adv-x="460" 
d="M573 1391q0 -9 -24 -72q-7 -19 -29.5 -77t-36.5 -99l-262 -766q-7 -22 -18 -53.5t-17 -49.5t-14 -43t-13 -39.5t-10.5 -32.5t-8.5 -29t-6 -23t-4 -19.5t-1 -13.5q0 -25 27 -25q42 0 109 57t110 121l18 -10q-58 -89 -140 -161t-157 -72q-36 0 -59 26.5t-23 65.5
q0 20 4.5 43.5t16 61t22.5 68.5t34 96t40 114l254 739l10 30t9.5 29.5t6.5 22.5t5.5 24.5t1.5 20.5q0 31 -23 45q-22 13 -78 21l5 10h241q10 0 10 -10z" />
    <glyph glyph-name="m" unicode="m" horiz-adv-x="1314" 
d="M1235 215q-53 -90 -128.5 -161.5t-145.5 -71.5q-41 0 -66 25.5t-25 68.5q0 31 18.5 94t51.5 158.5t47 142.5q12 37 40 116t41 122t13 63q0 45 -39 45q-33 0 -86 -43.5t-114 -120.5t-126.5 -204t-113.5 -275q-16 -59 -53 -174h-123q44 149 81.5 266t52.5 159l15 42
q12 36 41 120.5t42.5 128t13.5 56.5q0 45 -41 45q-31 0 -77 -32.5t-100 -94t-113 -168t-105 -237.5q-55 -150 -101 -285h-117q86 271 195 588q41 122 41 184q0 47 -31 47q-61 0 -160 -153l-16 12q31 54 66 94.5t65.5 61t53.5 29.5t40 9q84 0 84 -102q0 -75 -65 -276h6
q98 188 205 283t192 95q43 0 65.5 -29.5t22.5 -78.5q0 -10 -2 -22.5t-7 -31.5t-9 -34t-13 -43t-14 -43.5t-17 -51.5t-18 -53h7q104 190 205.5 288.5t181.5 98.5q46 0 73 -31.5t27 -82.5q0 -31 -18 -91t-54 -160t-51 -145q-82 -244 -82 -286q0 -27 21 -27q46 0 102 52.5
t100 125.5z" />
    <glyph glyph-name="n" unicode="n" horiz-adv-x="931" 
d="M852 217q-54 -89 -131 -162t-148 -73q-37 0 -58 23t-21 58q0 29 12.5 81.5t26.5 96t39.5 119t35.5 107.5q10 31 29.5 88.5t30.5 90.5t20.5 71t9.5 59q0 22 -7.5 31.5t-26.5 9.5q-35 0 -86.5 -36.5t-109.5 -102.5t-120 -171t-112 -228q-46 -116 -101 -279h-117
q33 105 110 335t85 255q43 136 43 188q0 47 -29 47q-62 0 -153 -157l-19 10q57 106 116.5 150t107.5 44q37 0 59 -24.5t22 -73.5q0 -92 -71 -303h6q111 189 220 295t196 106q50 0 75 -29t25 -79q0 -30 -12.5 -82.5t-25 -91.5t-41 -121.5t-38.5 -112.5q-9 -26 -23.5 -69.5
t-23.5 -70t-18.5 -58t-14 -52.5t-4.5 -34q0 -23 21 -23q37 0 98 55t102 123z" />
    <glyph glyph-name="o" unicode="o" horiz-adv-x="741" 
d="M680 586q0 -128 -47.5 -255.5t-132.5 -219.5q-57 -63 -127 -95t-140 -32q-100 0 -160.5 72.5t-60.5 195.5q0 134 47 260.5t131 222.5q121 137 277 137q103 0 158 -76t55 -210zM575 659q2 98 -25.5 144.5t-88.5 46.5q-54 0 -95 -32.5t-83 -94.5q-64 -93 -113 -256.5
t-45 -292.5q6 -168 119 -168q31 0 58 12t50 35.5t35.5 40.5t30.5 45q60 99 108 254.5t49 265.5z" />
    <glyph glyph-name="p" unicode="p" horiz-adv-x="854" 
d="M782 608q0 -84 -23 -172.5t-67 -169t-102 -144.5t-134.5 -102t-158.5 -38q-94 0 -152 61l-90 -258q-26 -76 -26 -135q0 -48 45 -70q21 -10 76 -18l-3 -11h-419l4 11q65 7 96 28q34 21 56.5 59.5t43.5 100.5l285 860q35 107 35 166q0 43 -31 43q-28 0 -75.5 -46.5
t-104.5 -133.5l-17 12q138 221 250 221q78 0 78 -88q0 -50 -12 -102h4q51 93 120.5 141.5t131.5 48.5q190 0 190 -264zM653 639q0 184 -94 184q-71 0 -139 -71q-70 -77 -107 -193q-29 -91 -149 -457q43 -94 133 -94q71 0 123 35q97 66 165 250t68 346z" />
    <glyph glyph-name="q" unicode="q" horiz-adv-x="833" 
d="M825 848l-344 -1063q-28 -94 -28 -135q0 -49 47 -72q19 -9 73 -18l-2 -9h-407l2 9q56 6 88 26q53 35 90 144l168 495h-4q-55 -89 -119 -153q-90 -90 -190 -90q-69 0 -122.5 57.5t-53.5 179.5q0 110 41.5 228t107 211t154 153.5t174.5 60.5q60 0 104.5 -39.5t57.5 -109.5
h6l114 125h43zM621 662q0 85 -31 134.5t-88 49.5q-110 0 -203 -152q-70 -113 -109.5 -259t-39.5 -249q0 -69 24.5 -106t63.5 -37q73 0 141 63q70 67 117 146q45 80 85 215t40 195z" />
    <glyph glyph-name="r" unicode="r" horiz-adv-x="657" 
d="M705 776q0 -35 -19.5 -54.5t-42.5 -19.5q-57 0 -70 66q-1 5 -3 14.5t-3 14.5t-3.5 11t-7 8.5t-11.5 2.5q-107 0 -305 -522q-49 -130 -105 -297h-117l191 580q39 116 39 186q0 51 -37 51q-62 0 -156 -151l-16 10q40 74 86 120.5t79 61t62 14.5q88 0 88 -96q0 -84 -63 -276
h6q93 217 162 294.5t147 77.5q45 0 72 -26t27 -70z" />
    <glyph glyph-name="s" unicode="s" horiz-adv-x="595" 
d="M565 733q0 -34 -16.5 -56t-46.5 -22q-27 0 -43.5 16.5t-16.5 43.5q0 16 8.5 38.5t6.5 37.5q-3 26 -27 41.5t-65 15.5q-66 0 -97.5 -38.5t-31.5 -100.5q0 -31 14.5 -69t30 -64t51.5 -82q93 -143 112 -180.5t19 -82.5q0 -58 -26 -106.5t-67 -78t-87 -46t-90 -16.5
q-88 0 -154 53t-66 137q0 43 21 71.5t59 28.5q28 0 45.5 -18.5t14.5 -48.5q-1 -30 -25.5 -59t-24.5 -50q0 -46 37 -70t88 -24q70 0 113 49t43 137q0 16 -1.5 29t-7.5 29t-10 25.5t-17.5 31t-20 32t-28 41.5t-32.5 48q-56 82 -77 132t-21 106q0 92 72 150t174 58
q80 0 135 -42.5t55 -96.5z" />
    <glyph glyph-name="t" unicode="t" 
d="M543 825h-185l-145 -450q-80 -249 -80 -297q0 -29 25 -29q41 0 93.5 50.5t104.5 129.5l21 -10q-154 -237 -275 -237q-38 0 -63 26t-25 72q0 32 16 90.5t52.5 168t44.5 134.5l113 352h-107l8 29h107l96 317h121l-96 -317h182z" />
    <glyph glyph-name="u" unicode="u" horiz-adv-x="919" 
d="M883 219q-53 -92 -141 -164.5t-171 -72.5q-40 0 -63 29.5t-23 80.5q0 98 60 273h-6q-111 -189 -215 -286t-181 -97q-94 0 -94 114q0 20 6 51t20.5 78t25 80t32.5 98t31 91q5 16 22 65.5t26 76.5t21 64.5t17.5 60t5.5 32.5q0 24 -20 24q-53 0 -150 -151l-16 10
q32 59 68 101t66.5 61t53 26.5t41.5 7.5q72 0 72 -71q0 -37 -18.5 -103t-55.5 -171.5t-49 -143.5q-8 -27 -23 -72.5t-23.5 -72.5t-17.5 -59t-13.5 -53t-4.5 -34q0 -27 6.5 -38t24.5 -11q68 0 185 136.5t212 375.5q71 181 111 299h116q-136 -400 -190 -584q-29 -100 -29 -161
q0 -62 39 -62q55 0 116 54.5t107 127.5z" />
    <glyph glyph-name="v" unicode="v" horiz-adv-x="745" 
d="M719 725q0 -197 -168 -459q-82 -126 -182 -204t-176 -78q-74 0 -114 38.5t-40 110.5q0 22 6.5 53.5t20 73.5t25 75t30 84t26.5 73q99 273 99 301q0 24 -21 24q-58 0 -159 -149l-17 10q62 105 126.5 149.5t113.5 44.5q71 0 71 -73q0 -32 -19 -95t-57.5 -168t-54.5 -155
q-5 -16 -14.5 -45.5t-15 -45.5t-13 -41t-11.5 -40.5t-8.5 -33.5t-6.5 -31.5t-2 -24.5q0 -15 2 -25.5t8 -23.5t20.5 -20t36.5 -7q67 0 143.5 58.5t136.5 143.5t100 182.5t40 172.5q0 65 -24 129q-23 57 -23 86q0 57 47 57q36 0 55 -39t19 -108z" />
    <glyph glyph-name="w" unicode="w" horiz-adv-x="1187" 
d="M297 45q83 0 209 145q-6 44 -6 86q0 155 39 286t90 212q29 47 62.5 72.5t58.5 25.5q38 0 54.5 -32.5t16.5 -79.5q0 -220 -211 -498q33 -217 168 -217q45 0 81.5 21.5t76.5 70.5q64 81 102.5 191.5t38.5 222.5q0 90 -39 178q-22 53 -22 84q0 26 13 42.5t36 16.5
q37 0 57.5 -41.5t20.5 -109.5q0 -121 -47 -298.5t-138 -297.5q-49 -65 -109 -104t-120 -39q-170 0 -217 180q-70 -82 -136.5 -131t-139.5 -49q-82 0 -125 53.5t-43 154.5q0 63 21 135.5t61 150.5t71.5 130.5t77.5 124.5q-66 4 -125 43q-10 6 -28 19.5t-31 21.5t-21 8
q-14 0 -14 -14q0 -9 16 -41q15 -29 15 -49q0 -21 -14.5 -36t-33.5 -15q-24 0 -39.5 14t-15.5 39q0 31 20 63.5t50 55.5q48 37 82 37q13 0 26.5 -4.5t22.5 -9.5t22 -13.5t19 -11.5q59 -35 88 -35q11 0 24 20q17 26 30 37.5t30 11.5q27 0 27 -22q0 -24 -29 -41l-12 -6
t-14.5 -7.5t-13.5 -8.5t-15 -11t-13.5 -13.5t-13.5 -17.5q-54 -85 -101 -247.5t-47 -292.5q0 -160 107 -160zM598 459q0 -109 6 -164q174 241 174 401q0 65 -16.5 97t-40.5 32q-18 0 -38.5 -23t-40 -66t-32 -116t-12.5 -161z" />
    <glyph glyph-name="x" unicode="x" horiz-adv-x="843" 
d="M877 762q0 -52 -30 -113.5t-71 -113.5l-14 4q20 43 36.5 100.5t16.5 95.5q0 96 -74 96q-62 0 -139 -104q-98 -148 -141 -301q-47 -176 -47 -303q0 -86 57 -86t110 55t109 144l17 -11q-55 -101 -132 -172t-155 -71q-63 0 -94 44t-31 115q0 55 10 97h-6
q-117 -256 -268 -256q-46 0 -73.5 31t-27.5 79q0 89 103 227l14 -4q-22 -43 -37.5 -100t-15.5 -96q0 -96 74 -96q61 0 133 98q103 144 147 305q49 183 49 305q0 88 -55 88q-54 0 -111.5 -57.5t-109.5 -143.5l-17 11q59 104 137.5 173.5t151.5 69.5q117 0 117 -178
q0 -50 -6 -80h6q45 108 119 183t147 75q46 0 73.5 -30t27.5 -80z" />
    <glyph glyph-name="y" unicode="y" horiz-adv-x="722" 
d="M643 754q0 -154 -44 -309t-120 -289.5t-169.5 -248t-200.5 -206.5q-158 -137 -246 -137q-33 0 -59.5 20.5t-26.5 57.5q0 34 19 54.5t50 20.5q42 0 72 -43q19 -30 43 -30q37 0 111 63q41 32 102.5 92.5t110.5 120.5q-37 437 -115 750q-19 71 -38 97t-40 26q-20 0 -41 -27
t-52 -80q-1 -3 -2 -4.5t-2.5 -3.5t-2.5 -4l-2 -4l-17 8q40 84 87 139t94 55q60 0 94 -67q39 -76 77 -286.5t58 -463.5h4q99 149 150 294.5t51 234.5q0 46 -7.5 71.5t-29.5 69.5q-25 56 -25 80q0 30 15 48.5t43 18.5q33 0 46 -28.5t13 -89.5z" />
    <glyph glyph-name="z" unicode="z" horiz-adv-x="755" 
d="M756 827q0 -12 -2.5 -23.5t-11 -24t-13.5 -20.5t-20.5 -22.5t-21.5 -20t-27 -23.5t-27 -23l-506 -504h8q35 0 66 -4q54 -6 125 -23q19 -5 55.5 -15.5t60 -15t50.5 -4.5q83 0 143 62q22 25 51 76l21 -11q-15 -29 -32 -57.5t-45.5 -65t-58 -63t-69.5 -45t-80 -18.5
q-52 0 -85.5 20.5t-72.5 63.5q-65 71 -121 71q-30 0 -47.5 -19.5t-36.5 -66.5q-15 -38 -30.5 -53.5t-38.5 -15.5q-19 0 -30 15t-11 38q0 53 53 82q33 18 72 35l495 495h-4q-64 0 -117 17t-124 67q-88 60 -131 60q-45 0 -72 -29.5t-27 -75.5q0 -44 37 -65q1 39 19 59t47 20
q30 0 46.5 -19t16.5 -50q0 -28 -18.5 -47t-48.5 -19q-51 0 -86 37t-35 96q0 75 51.5 124.5t120.5 49.5q52 0 89 -18.5t91 -65.5q124 -108 156 -108q24 0 39.5 16t21 35t12 49.5t11.5 44.5q17 47 57 47q16 0 25.5 -13.5t9.5 -31.5z" />
    <glyph glyph-name="braceleft" unicode="{" horiz-adv-x="661" 
d="M459 -285q-131 16 -219 90t-88 187q0 52 49 189.5t49 197.5q0 94 -46.5 137t-140.5 66l7 24q89 10 153 37q67 27 101.5 69.5t58.5 133.5q9 35 20 124.5t17 119.5q27 135 154 222.5t286 90.5l-6 -23q-46 -4 -79 -11t-72 -24t-65.5 -44t-49.5 -73t-35 -108q-5 -28 -15 -102
t-20 -117q-29 -115 -128.5 -199.5t-229.5 -109.5l-2 -10q33 -14 62.5 -33t60 -47t49 -66.5t18.5 -81.5q0 -78 -23.5 -160.5t-47 -152t-23.5 -115.5q0 -84 59.5 -130t149.5 -58z" />
    <glyph glyph-name="bar" unicode="|" horiz-adv-x="403" 
d="M250 -203h-27v1610h27v-1610z" />
    <glyph glyph-name="braceright" unicode="}" horiz-adv-x="704" 
d="M209 1380l4 23q131 -16 219 -90t88 -187q0 -52 -49 -189.5t-49 -197.5q0 -94 46 -136.5t140 -65.5l-6 -25q-89 -10 -153 -37q-67 -27 -101.5 -69.5t-58.5 -133.5q-9 -35 -20 -124t-17 -119q-27 -135 -154 -223t-286 -91l6 23q46 4 79 11t72 24t65.5 44t49.5 73t35 108
q5 28 15 102t20 117q29 115 128.5 199.5t229.5 109.5l2 11q-33 14 -62.5 33t-60 47t-49 66t-18.5 81q0 78 23.5 160.5t47 152t23.5 115.5q0 84 -59.5 130t-149.5 58z" />
    <glyph glyph-name="asciitilde" unicode="~" horiz-adv-x="675" 
d="M580 680q-13 -83 -55 -137t-113 -54q-53 0 -132 30t-126 30q-76 0 -129 -84l-11 6q65 184 172 184q50 0 126.5 -26.5t119.5 -26.5q51 0 80 17t55 63z" />
    <glyph glyph-name="grave.uc" horiz-adv-x="1132" 
d="M766 1475l-6 -11q-215 73 -303 107q-58 23 -81.5 41t-23.5 49q0 21 14 37t42 16q34 0 98 -47q42 -29 260 -192z" />
    <glyph glyph-name="idotaccent" 
d="M416 219q-56 -95 -130 -166t-151 -71q-39 0 -61.5 25t-22.5 73q0 32 22 107t64 197t49 144q9 28 22.5 69.5t20 62t14 46.5t10.5 43.5t3 32.5q0 41 -29 41q-27 0 -62.5 -36.5t-86.5 -120.5l-19 12q111 194 226 194q38 0 61 -25.5t23 -76.5q0 -30 -13 -83.5t-28 -98.5
t-39 -115t-33 -98q-84 -248 -84 -293q0 -33 23 -33q45 0 100.5 53.5t101.5 126.5zM295 1227q0 34 21 56t55 22t56 -22t22 -56t-22 -55t-56 -21t-55 21t-21 55z" />
    <glyph glyph-name="c_t" horiz-adv-x="1120" 
d="M1178 825h-189l-141 -450q-80 -249 -80 -297q0 -29 25 -29q41 0 93.5 50.5t104.5 129.5l21 -10q-154 -237 -275 -237q-38 0 -62 26t-24 72q0 25 12.5 75t26 93t38 118.5t34.5 106.5l110 352h-104l8 29h107l125 393h-4q-104 -71 -211 -71q-91 0 -179 43q-22 10 -56 28
t-52.5 27t-41.5 16.5t-40 7.5q-48 0 -85.5 -39.5t-37.5 -107.5q0 -104 51.5 -176.5t139.5 -104.5q51 -7 90 -39t39 -94q0 -34 -18 -58t-50 -24q-35 0 -51.5 17t-16.5 41q0 23 11 41q5 9 13.5 19.5t13.5 17t5 10.5q0 45 -69 45q-80 0 -146 -82q-76 -96 -129 -271t-53 -313
q0 -83 32 -121.5t81 -38.5q90 0 159 66.5t115 155.5l21 -13q-53 -106 -135 -175.5t-187 -69.5q-97 0 -150 73.5t-53 190.5q0 139 51 265.5t142 223.5q114 120 235 133q-104 32 -168.5 98t-64.5 154q0 90 86.5 146.5t193.5 56.5q93 0 244 -55q9 -3 24 -8.5t21 -8t17 -6.5
t15.5 -5.5t12.5 -4t12.5 -3t11 -1.5t12 -1.5t11.5 -0.5q46 0 89.5 16.5t81 47t57 50.5t46.5 50q5 6 7 8l16 -10l-170 -539h189z" />
    <glyph glyph-name="s_t" horiz-adv-x="1077" 
d="M1135 825h-189l-141 -450q-80 -249 -80 -297q0 -29 25 -29q41 0 93.5 50.5t104.5 129.5l21 -10q-154 -237 -275 -237q-38 0 -63 26t-25 72q0 32 16 90.5t52.5 168t44.5 134.5l110 352h-104l8 29h107l125 393h-4q-49 -33 -112.5 -52t-123.5 -19q-92 0 -180 43
q-23 11 -53 26.5t-45 23t-33.5 13.5t-34.5 6q-46 0 -83.5 -46.5t-37.5 -129.5q0 -79 46 -150.5t132 -97.5q56 -15 92.5 -52t36.5 -79q0 -34 -16.5 -56t-46.5 -22q-27 0 -43.5 16.5t-16.5 43.5q0 16 8.5 38.5t6.5 37.5q-3 26 -27 41.5t-65 15.5q-66 0 -97.5 -38.5
t-31.5 -100.5q0 -31 14.5 -69t30 -64t51.5 -82q93 -143 112 -180.5t19 -82.5q0 -58 -26 -106.5t-67 -78t-87 -46t-90 -16.5q-88 0 -154 53t-66 137q0 43 21 71.5t59 28.5q28 0 45.5 -18.5t14.5 -48.5q-1 -30 -25.5 -59t-24.5 -50q0 -46 37 -70t88 -24q70 0 113 49t43 137
q0 16 -1.5 29t-7.5 29t-10 25.5t-17.5 31t-20 32t-28 41.5t-32.5 48q-56 82 -77 132t-21 106q0 90 69 147.5t167 60.5q-87 28 -143 92.5t-56 137.5q0 101 85.5 158t209.5 57q50 0 92 -9.5t111 -37.5q96 -39 149 -39q143 0 295 172l16 -10l-170 -539h189z" />
    <glyph glyph-name="i.low" 
d="M416 219q-56 -95 -130 -166t-151 -71q-39 0 -61.5 25t-22.5 73q0 32 22 107t64 197t49 144q9 28 22.5 69.5t20 62t14 46.5t10.5 43.5t3 32.5q0 41 -29 41q-27 0 -62.5 -36.5t-86.5 -120.5l-19 12q111 194 226 194q38 0 61 -25.5t23 -76.5q0 -30 -13 -83.5t-28 -98.5
t-39 -115t-33 -98q-84 -248 -84 -293q0 -33 23 -33q45 0 100.5 53.5t101.5 126.5zM272 1128q0 34 21 56t55 22t56 -22t22 -56q0 -33 -22 -54t-56 -21t-55 20.5t-21 54.5z" />
    <glyph glyph-name="j.low" horiz-adv-x="444" 
d="M303 1128q0 34 21 56t55 22t56 -22t22 -56q0 -33 -22 -54t-56 -21t-55 20.5t-21 54.5zM385 770q0 -57 -147 -518q-97 -307 -140.5 -411t-97.5 -167q-48 -57 -108.5 -83.5t-112.5 -26.5q-75 0 -116.5 38.5t-41.5 84.5q0 35 18 57.5t48 22.5q32 0 48.5 -18.5t16.5 -49.5
q0 -14 -8 -47q-4 -20 -4 -29q0 -14 13.5 -22.5t33.5 -8.5q77 0 131 93q44 76 209 596q66 200 92 299q45 154 45 198q0 41 -33 41q-26 0 -55.5 -29.5t-89.5 -123.5l-18 10q110 196 223 196q43 0 68.5 -25.5t25.5 -76.5z" />
    <glyph glyph-name="A.swash" horiz-adv-x="1212" 
d="M80 -16q-68 0 -117 36t-49 103q0 44 26.5 76t71.5 32q35 0 62.5 -25.5t27.5 -62.5q0 -42 -28 -73q-19 -22 -19 -33q0 -4 2.5 -8.5t11 -8.5t21.5 -4q40 0 85 27.5t86 69.5t87.5 105.5t83.5 123t80 133.5q16 28 58 100.5t60 104t57.5 97.5t61 99.5t59.5 90.5t64 91t63.5 81
t69.5 79t70 66.5t76 61.5h41l-205 -1078q-18 -101 -18 -151q0 -66 57 -94q26 -13 53 -13l-2 -10h-397v10l43 8q49 16 74 60q15 27 26.5 65t17.5 69.5t19 100.5l45 234h-321l-39 -72q-77 -141 -151 -245.5t-158 -175t-156 -70.5zM1024 1198q-181 -190 -426 -627h313l123 627
h-10z" />
    <glyph glyph-name="J.swash" horiz-adv-x="1079" 
d="M1178 752h-312q-3 -11 -42.5 -172t-61.5 -232q-61 -197 -120.5 -337.5t-129.5 -243t-151 -152t-177 -49.5q-58 0 -105.5 13t-76.5 32t-48.5 44t-27.5 47t-8 42q0 46 25.5 76t66.5 30q44 0 68 -25.5t24 -62.5q0 -30 -12 -65q-12 -32 -12 -47q0 -24 27.5 -40t78.5 -16
q111 0 201 150q39 63 92.5 207.5t89 258.5t92.5 304q38 121 95 238h-262l8 36h272q20 41 127 246q-67 -24 -125 -24q-53 0 -91 10.5t-65.5 35t-45 50.5t-40.5 70q-12 22 -31 62t-29 59t-27.5 45.5t-32.5 39t-37.5 22t-48.5 9.5q-67 0 -102.5 -42.5t-35.5 -82.5t45 -53
q78 -17 78 -84q0 -36 -24.5 -58t-59.5 -22q-45 0 -74.5 36t-29.5 95q0 98 73 180t191 82q44 0 80.5 -12t61 -30.5t46 -46.5t34.5 -52.5t29 -56.5q3 -8 5 -11q27 -55 41.5 -81.5t39.5 -60.5t52 -48t62 -14q34 0 84 24l2 2q9 33 25 72.5t39.5 82t54.5 71t63 28.5
q28 0 41.5 -16t13.5 -41q0 -45 -49.5 -99t-128.5 -100q-31 -18 -41 -22q-3 -13 -26 -109t-37 -145q-1 -1 -2.5 -5.5t-2.5 -5.5h312z" />
    <glyph glyph-name="M.swash" horiz-adv-x="1804" 
d="M668 1161l-142 -565q-25 -97 -47 -171t-51 -149t-61.5 -127.5t-71.5 -95t-87.5 -63.5t-105.5 -21q-91 0 -142.5 47.5t-51.5 108.5q0 47 24.5 80t71.5 33q43 0 68.5 -26.5t25.5 -64.5q0 -40 -26 -73q-3 -4 -8.5 -10t-8 -9.5t-4.5 -8t-2 -9.5q0 -14 15 -25.5t47 -11.5
q59 0 108.5 29t88.5 80t75.5 136t66 182t62.5 232l92 373q37 152 37 201q0 68 -59 90q-10 4 -56 12l2 11h263l159 -1184h4l721 1184h279l-2 -11q-49 -8 -62 -12q-57 -17 -88 -63q-13 -20 -25.5 -54t-19 -59t-19.5 -81t-18 -77l-159 -655q-45 -176 -45 -230q0 -63 49 -84
q14 -6 55 -12l-2 -8h-424v8q13 0 43 6q54 12 92 66q46 70 92 274l201 834h-6l-729 -1196h-53l-162 1169h-4z" />
    <glyph glyph-name="N.swash" horiz-adv-x="1687" 
d="M1249 684l-202 -700h-25l-373 1122h-8l-129 -510q-26 -102 -47 -173t-49 -148.5t-58 -128t-67.5 -93t-84 -62.5t-102.5 -20q-91 0 -143.5 48t-52.5 110q0 45 25.5 78t70.5 33q42 0 67 -28.5t25 -66.5q0 -42 -24 -69q-23 -26 -23 -37q0 -13 15.5 -25t48.5 -12q55 0 100 26
t82 74t72 131t65 182.5t66 243.5l90 365q26 106 26 154t-25 86.5t-59 54.5q-21 12 -59 18l2 9h254l352 -1108h6l150 505q82 275 128 379q84 191 200 235q39 15 84 15q85 0 134.5 -48t49.5 -110q0 -44 -25.5 -77t-70.5 -33q-42 0 -67.5 28t-25.5 66q0 36 27 70q21 26 21 39
q0 34 -50 34q-46 0 -84 -16.5t-72 -57t-60.5 -87.5t-57.5 -130.5t-55.5 -161.5t-61.5 -204z" />
    <glyph glyph-name="Q.swash" horiz-adv-x="1265" 
d="M1223 903q0 -515 -531 -807q111 -103 269 -301q179 -223 294.5 -309t229.5 -86q44 0 75.5 19t34.5 46q-46 6 -74 31t-28 64q0 41 25.5 70.5t70.5 29.5q41 0 72 -28t31 -78q0 -26 -12.5 -56.5t-39.5 -62.5t-80 -53t-124 -21q-110 0 -204 30t-170 87.5t-134 123t-119 154.5
q-31 45 -98.5 148.5t-100.5 150.5q-180 -84 -327 -84q-104 0 -168 38.5t-64 107.5q0 66 71.5 109.5t192.5 43.5q177 0 349 -149q172 107 287.5 313.5t115.5 425.5q0 207 -97.5 331t-281.5 124q-182 0 -281.5 -120t-99.5 -310q0 -134 80 -220.5t201 -86.5t185.5 60t64.5 148
q0 33 -15 62.5t-41 46.5q-34 -100 -116 -100q-41 0 -69 28.5t-28 67.5q0 49 33.5 78.5t79.5 29.5q35 0 67.5 -11.5t60.5 -35t45 -64t17 -93.5q0 -120 -81.5 -209.5t-215.5 -89.5q-161 0 -262.5 96t-101.5 258q0 149 79.5 271t205 187.5t266.5 65.5q142 0 249 -67t159.5 -173
t52.5 -231zM350 23q115 0 242 59q-31 39 -64 72q-52 50 -100 69t-111 19q-69 0 -103 -32t-34 -79q0 -49 47.5 -78.5t122.5 -29.5z" />
    <glyph glyph-name="T.swash" horiz-adv-x="1282" 
d="M385 870q0 -42 -28 -65t-68 -23q-77 0 -121.5 68t-44.5 158q0 71 31.5 139.5t89 123.5t147.5 88.5t197 33.5q135 0 448 -29t332 -29q47 0 47 35q0 10 -12 39t-12 53q0 68 55 68q57 0 57 -68q0 -43 -20 -79t-66 -68t-134 -50t-212 -18q-25 0 -131 4l-225 -915
q-45 -178 -45 -242q0 -31 11 -46.5t42 -27.5q23 -10 53 -10l-2 -10h-426l2 10q19 0 51 8q61 18 88 64q37 63 89 274l223 904q-281 18 -293 18q-44 0 -87.5 -6t-93 -23.5t-87 -45t-62 -75t-24.5 -108.5q0 -38 15.5 -71.5t43.5 -33.5q7 0 37 18.5t57 18.5q34 0 56 -22t22 -60z
" />
    <glyph glyph-name="V.swash" horiz-adv-x="1247" 
d="M805 862q-28 -40 -115.5 -166t-212 -306.5t-268.5 -389.5h-66l203 1075q19 95 19 158q0 62 -58 90q-24 12 -51 12l2 11h391l-2 -11l-41 -8q-46 -14 -74 -63q-23 -39 -35 -89t-28 -147l-150 -803h11l456 664q7 11 22 32q46 67 69 100t64.5 89t67 85t62.5 66.5t65.5 55.5
t62.5 31.5t67 13.5q69 0 109 -37.5t40 -97.5q0 -49 -28 -79t-68 -30q-38 0 -66 26.5t-28 61.5q0 39 28 72q13 16 13 25q0 20 -25 20q-29 0 -61 -15t-66.5 -47.5t-65 -65.5t-70 -86.5t-67 -92.5t-69.5 -100q-25 -36 -37 -54z" />
    <glyph glyph-name="W.swash" horiz-adv-x="1787" 
d="M1382 868q-25 -39 -107 -170t-198 -312t-252 -386h-71l202 1077l15 92q-29 -42 -304 -477t-452 -692h-72l199 1077q18 100 18 156q0 63 -59 90q-24 12 -51 12l2 11h401l-2 -11l-45 -10q-48 -12 -78 -63q-12 -20 -21 -46.5t-13 -45.5t-13 -66t-14 -72l-152 -819h11
q64 93 321 500t328 510v10q0 62 -66 90q-11 5 -47 12l2 11h393l-4 -11l-41 -8q-45 -14 -73 -63q-8 -14 -15 -31t-11 -29.5t-10 -38.5t-8 -37.5t-9 -47t-9 -48.5l-145 -803h10q74 110 221.5 346.5t198.5 315.5q17 26 49.5 76.5t50.5 77t47.5 70.5t49 68.5t47.5 57.5t50 51
t48 36.5t51.5 26t50.5 7.5q67 0 106.5 -38.5t39.5 -100.5q0 -46 -28.5 -75.5t-68.5 -29.5q-42 0 -68 26t-26 62q0 35 29 72q12 14 12 25q0 20 -26 20q-24 0 -51 -14.5t-59 -47.5t-57 -61.5t-62.5 -82.5t-57 -82.5t-58 -89.5t-49.5 -77z" />
    <glyph glyph-name="Y.swash" horiz-adv-x="1126" 
d="M678 723l-92 -387q-49 -203 -49 -240q0 -42 41 -65q28 -16 65 -21l-2 -10h-424l2 10q30 3 64 13q56 15 82 63q30 50 65 199l86 366q24 105 34.5 153.5t20 113.5t9.5 112q0 66 -19 121t-65 93t-113 38q-57 0 -101 -21t-74 -59.5t-48.5 -78.5t-34.5 -93l-23 4
q34 143 118.5 241.5t205.5 98.5q89 0 151.5 -46.5t89.5 -116t27 -154.5q0 -89 -16 -180h8q30 82 59 146.5t73.5 133t94.5 114t119 74.5t148 29t117 -30t38 -78q0 -38 -22.5 -65t-63.5 -27q-37 0 -57 17t-33 52q-15 41 -31 57.5t-49 16.5q-52 0 -112 -41t-113 -121
q-115 -172 -176 -432z" />
    <glyph glyph-name="hyphen.uc" horiz-adv-x="700" 
d="M643 705l-20 -68h-437l21 68h436z" />
    <glyph glyph-name="parenleft.uc" horiz-adv-x="409" 
d="M629 1440q-512 -397 -512 -938q0 -153 43 -319.5t108 -297.5l-30 -18q-62 127 -110 297.5t-48 337.5q0 559 528 962z" />
    <glyph glyph-name="parenright.uc" horiz-adv-x="409" 
d="M-154 -135l-20 24q512 397 512 938q0 152 -43.5 319t-108.5 298l31 18q62 -127 110 -297.5t48 -337.5q0 -559 -529 -962z" />
    <glyph glyph-name="bracketleft.uc" horiz-adv-x="757" 
d="M926 1391q0 -87 -56 -149t-155 -62q-66 0 -134.5 22.5t-109 45.5t-92.5 59l-313 -1256q78 46 182 85.5t188 39.5q162 0 162 -133q0 -38 -22 -82.5t-56 -73.5l-14 11l4 5q5 5 6 6.5t5 6.5t5.5 7.5t4.5 8t4 9.5t3 10t2.5 12.5t0.5 13.5q0 50 -35 74.5t-119 24.5
q-216 0 -369 -76l338 1350q153 -64 330 -64q60 0 104 13.5t66.5 36t32.5 46t10 48.5q0 21 -6 36h14q19 -28 19 -75z" />
    <glyph glyph-name="bracketright.uc" horiz-adv-x="757" 
d="M-78 -47q0 88 56 150.5t155 62.5q68 0 137.5 -23.5t106 -45.5t92.5 -60l313 1259q-78 -46 -182 -85.5t-188 -39.5q-162 0 -162 134q0 38 22 82t56 73l14 -10q-35 -40 -35 -80q0 -50 35 -74t119 -24q215 0 368 76l-337 -1354q-155 65 -330 65q-62 0 -106 -13.5t-66 -36.5
t-31.5 -46t-9.5 -49q0 -22 6 -37h-14q-19 29 -19 76z" />
    <glyph glyph-name="braceleft.uc" horiz-adv-x="661" 
d="M436 -137q-134 16 -219.5 79t-85.5 171q0 44 47 177.5t47 194.5q0 87 -51 137t-135 66l6 25q96 11 152 37q60 30 96 78t61 145q7 28 13 61t12.5 75t11.5 69q27 133 152.5 210t292.5 80l-7 -22q-49 -3 -84.5 -9.5t-74 -22t-65 -40t-49 -66t-34.5 -98.5q-7 -32 -13.5 -87.5
t-14.5 -94.5q-28 -128 -129.5 -216t-233.5 -114l-2 -10q33 -14 65 -34t64 -48.5t52 -66.5t20 -78q0 -76 -47 -221.5t-47 -192.5q0 -135 204 -162z" />
    <glyph glyph-name="braceright.uc" horiz-adv-x="663" 
d="M233 1446l5 22q87 -10 153.5 -39t109 -83t42.5 -127q0 -44 -47 -178t-47 -195q0 -87 51 -137t135 -66l-6 -25q-99 -11 -152 -36q-60 -30 -96.5 -78.5t-61.5 -145.5q-9 -37 -20.5 -110.5t-15.5 -93.5q-27 -133 -152.5 -210.5t-292.5 -80.5l6 22q49 3 84.5 9.5t74 22
t65.5 40t49.5 66t34.5 98.5q7 32 13.5 87.5t14.5 94.5q28 128 129.5 216t233.5 114l2 10q-33 14 -65 34t-64 48.5t-52 66.5t-20 78q0 76 47 221.5t47 192.5q0 135 -205 162z" />
    <glyph glyph-name="slash.uc" horiz-adv-x="462" 
d="M715 1452l-891 -1591l-25 10l891 1593z" />
    <glyph glyph-name="backslash.uc" horiz-adv-x="688" 
d="M516 -117l-27 -4l-278 1591l27 7z" />
    <glyph glyph-name="bar.uc" horiz-adv-x="403" 
d="M250 -131h-27v1581h27v-1581z" />
    <glyph glyph-name="at.uc" horiz-adv-x="1464" 
d="M1423 829q0 -101 -32 -191t-84 -152.5t-116 -108.5t-128.5 -68t-122.5 -22q-121 0 -121 104q0 44 27 127h-6q-58 -89 -115 -145q-47 -47 -84 -66.5t-82 -19.5q-65 0 -115.5 56t-50.5 167q0 90 34.5 189.5t91.5 183t139.5 138t170.5 54.5q55 0 85.5 -38t39.5 -95h4
q23 57 52 119h100q-20 -57 -94 -305q-90 -293 -90 -369q0 -45 49 -45q70 0 142 32t135 91t103 155t40 211q0 169 -73 287t-198.5 174t-294.5 56q-196 0 -360.5 -93.5t-260 -258.5t-95.5 -365q0 -201 84.5 -346t230.5 -217t338 -72q167 0 286 29t240 86l8 -19
q-112 -56 -237 -88.5t-297 -32.5q-210 0 -365 83.5t-236 232.5t-81 344q0 156 60 294.5t161 236t238 154t286 56.5q281 0 437.5 -145.5t156.5 -397.5zM932 887q0 168 -109 168q-98 0 -192 -154q-64 -109 -88.5 -223t-24.5 -201q0 -69 19.5 -104t54.5 -35q56 0 125 63
q53 50 108 138q40 66 60 127q47 154 47 221z" />
    </font>
</defs>
</svg>
